<?xml version="1.0" standalone="no"?>
<!DOCTYPE svg PUBLIC "-//W3C//DTD SVG 20010904//EN"
 "http://www.w3.org/TR/2001/REC-SVG-20010904/DTD/svg10.dtd">
<svg version="1.0" xmlns="http://www.w3.org/2000/svg"
 width="600.000000pt" height="524.000000pt" viewBox="0 0 600.000000 524.000000"
 preserveAspectRatio="xMidYMid meet">
<g transform="translate(0.000000,524.000000) scale(0.100000,-0.100000)"
fill="#000000" stroke="none">
<path d="M2140 5000 c-92 -11 -226 -45 -257 -65 -17 -11 -23 -25 -23 -50 0
-40 32 -80 57 -71 8 3 26 9 40 12 24 7 25 5 19 -22 -39 -152 -126 -625 -126
-681 0 -64 72 -93 140 -58 l30 16 1 97 c0 53 3 115 7 137 7 39 8 40 59 47 137
20 300 78 395 142 231 153 203 409 -52 480 -72 19 -197 26 -290 16z m264 -34
c62 -16 168 -74 161 -87 -3 -4 2 -10 11 -13 9 -4 14 -13 10 -22 -4 -9 -2 -13
5 -8 8 4 9 -1 4 -16 -5 -17 -4 -21 6 -15 9 6 11 3 6 -8 -3 -10 -2 -17 3 -17
16 0 2 -81 -17 -96 -11 -8 -13 -13 -5 -14 10 0 10 -5 2 -21 -18 -33 -43 -58
-52 -53 -5 3 -8 2 -7 -3 3 -18 -1 -36 -8 -30 -3 4 -16 -5 -29 -18 -13 -14 -31
-25 -40 -25 -10 0 -14 -3 -11 -6 11 -11 -61 -44 -80 -37 -10 3 -15 2 -10 -2 7
-9 -44 -37 -73 -40 -9 -1 -33 -8 -54 -15 -20 -6 -46 -10 -57 -7 -10 3 -17 2
-14 -3 5 -8 -42 -20 -80 -20 -59 0 -80 -58 -80 -216 0 -57 -3 -80 -11 -77 -7
2 -15 -1 -20 -8 -5 -8 -3 -10 6 -4 8 5 11 4 7 -1 -6 -11 -67 -11 -84 -1 -12 7
-11 147 1 166 6 9 14 55 22 126 6 61 26 149 35 155 4 3 7 16 8 30 1 47 11 111
21 129 5 10 12 46 15 80 7 77 -3 94 -46 79 -43 -15 -59 -5 -59 39 0 25 3 33 9
25 7 -11 9 -11 14 2 4 9 10 15 14 14 18 -4 83 15 83 25 0 6 20 8 53 4 36 -4
46 -3 32 4 -15 7 -9 8 22 4 23 -3 44 -1 47 3 9 15 179 14 240 -2z"/>
<path d="M2161 4902 c-19 -2 -40 -11 -46 -19 -7 -9 -16 -13 -22 -10 -11 7 -11
-22 1 -41 4 -6 5 -16 2 -20 -3 -5 -8 -24 -11 -43 -3 -19 -11 -52 -17 -74 -7
-22 -13 -49 -15 -60 -10 -72 -16 -94 -24 -89 -5 3 -5 -5 0 -18 5 -13 5 -33 0
-45 -6 -17 -5 -21 7 -16 7 3 14 1 14 -4 0 -5 24 -9 54 -9 30 1 52 4 49 9 -2 4
0 7 6 7 5 0 17 3 27 7 13 5 15 3 9 -7 -4 -7 14 -1 41 13 27 14 58 27 69 29 11
2 26 9 33 16 8 7 18 10 23 7 5 -4 17 -1 26 5 16 10 16 11 -2 6 -20 -5 -20 -5
0 7 10 7 32 24 47 39 15 14 28 23 28 20 1 -4 10 10 21 31 11 20 24 37 29 37 6
0 10 20 10 45 0 25 -4 45 -10 45 -5 0 -10 7 -10 15 0 22 -63 85 -84 85 -11 0
-14 5 -10 12 5 8 2 9 -9 5 -10 -3 -17 -3 -17 1 0 9 -7 10 -110 15 -41 2 -91 2
-109 -1z m245 -53 c60 -29 90 -80 79 -135 -15 -83 -163 -184 -320 -219 -38 -8
-80 -18 -92 -20 -27 -6 -27 -13 19 194 17 78 28 148 25 167 -5 29 -3 33 21 38
15 2 70 3 123 2 79 -2 106 -7 145 -27z"/>
<path d="M2561 4684 c0 -11 3 -14 6 -6 3 7 2 16 -1 19 -3 4 -6 -2 -5 -13z"/>
<path d="M2486 4588 c3 -5 10 -6 15 -3 13 9 11 12 -6 12 -8 0 -12 -4 -9 -9z"/>
<path d="M2350 4516 c0 -2 7 -7 16 -10 8 -3 12 -2 9 4 -6 10 -25 14 -25 6z"/>
<path d="M2328 4493 c6 -2 18 -2 25 0 6 3 1 5 -13 5 -14 0 -19 -2 -12 -5z"/>
<path d="M2380 4490 c-8 -5 -10 -10 -5 -10 6 0 17 5 25 10 8 5 11 10 5 10 -5
0 -17 -5 -25 -10z"/>
<path d="M1920 4100 c8 -5 20 -10 25 -10 6 0 3 5 -5 10 -8 5 -19 10 -25 10 -5
0 -3 -5 5 -10z"/>
<path d="M4020 4989 c-144 -18 -158 -18 -191 -4 -52 24 -107 16 -133 -18 -25
-34 -26 -89 -2 -116 18 -20 18 -25 -12 -190 -21 -109 -40 -186 -57 -219 -29
-58 -31 -72 -10 -72 19 0 19 -9 0 -107 -22 -114 -20 -193 7 -248 12 -25 25
-45 28 -45 4 0 12 11 18 25 15 32 23 31 63 -2 l32 -27 -6 114 c-6 110 6 258
23 290 5 9 25 17 47 18 179 12 383 32 403 40 l25 10 -27 12 c-37 17 -35 26 7
41 19 7 35 16 35 19 0 14 -80 30 -146 30 -62 0 -181 -10 -290 -25 l-41 -6 32
168 31 168 40 7 c21 3 119 9 216 13 132 6 186 12 215 25 l38 17 -35 18 -35 18
25 10 c24 9 24 10 -20 30 -62 28 -102 29 -280 6z m227 -14 c-4 -8 -2 -17 4
-21 6 -4 5 -12 -3 -22 -12 -15 -11 -16 4 -3 10 7 16 17 13 21 -3 4 2 11 11 14
12 4 14 1 9 -14 -4 -12 -2 -20 5 -20 6 0 9 -4 6 -9 -4 -5 0 -12 6 -15 7 -3 -4
-5 -24 -3 -21 2 -39 0 -40 -4 -5 -12 -291 -18 -312 -7 -12 7 -16 7 -12 0 3 -5
-9 -13 -28 -16 -44 -8 -55 -23 -63 -85 -3 -28 -10 -51 -15 -51 -5 0 -6 -4 -3
-10 3 -5 3 -16 -2 -22 -9 -15 -11 -25 -19 -98 -4 -30 -7 -63 -8 -72 -1 -10 -5
-21 -9 -24 -4 -4 -7 -12 -7 -18 0 -6 5 -4 10 4 9 13 12 13 21 -3 6 -9 15 -15
20 -12 17 11 90 15 84 5 -3 -6 -1 -10 4 -10 6 0 11 4 11 9 0 14 256 36 286 24
11 -4 11 -8 -1 -20 -9 -8 -13 -18 -10 -23 10 -16 -25 -31 -86 -35 -133 -10
-215 -17 -247 -21 -21 -2 -31 0 -27 6 3 5 1 10 -4 10 -6 0 -11 -5 -11 -11 0
-5 -4 -7 -10 -4 -5 3 -10 1 -10 -5 0 -7 -7 -9 -16 -6 -8 3 -12 2 -9 -3 3 -5 1
-12 -4 -16 -9 -5 -27 -91 -23 -107 1 -5 -2 -8 -6 -8 -10 0 -8 -103 3 -174 6
-39 5 -47 -5 -41 -10 6 -12 4 -7 -7 4 -11 0 -15 -11 -14 -9 2 -18 8 -20 14 -2
8 -11 3 -21 -10 l-18 -22 -16 35 c-10 21 -15 53 -13 84 4 55 23 182 31 204 3
8 -2 22 -10 31 -15 16 -14 19 0 34 9 9 12 16 5 16 -6 0 -8 5 -5 10 4 6 10 8
15 5 5 -3 9 3 9 12 0 33 32 195 41 203 3 3 6 19 7 35 0 17 5 59 11 95 8 59 7
66 -11 79 -18 13 -18 15 -2 23 21 12 34 0 15 -13 -13 -9 -13 -10 0 -6 22 6 18
32 -5 32 -23 0 -31 43 -9 52 8 3 11 9 8 14 -6 10 -4 10 43 13 17 1 31 -2 30
-7 -1 -5 4 -12 12 -15 9 -3 11 0 6 8 -6 9 -3 9 14 1 11 -7 21 -17 21 -24 0 -8
3 -9 8 -1 9 13 66 29 58 15 -4 -5 9 -6 32 0 48 11 54 11 47 0 -3 -5 0 -13 6
-17 7 -4 9 -3 5 4 -8 14 8 23 47 28 18 2 68 7 112 12 44 5 82 10 84 10 2 1 1
-5 -2 -13z"/>
<path d="M3713 4923 c0 -9 4 -10 11 -3 13 13 29 13 21 1 -3 -5 -1 -12 4 -15 5
-4 8 2 7 11 -3 21 -43 27 -43 6z"/>
<path d="M3818 4923 c7 -3 16 -2 19 1 4 3 -2 6 -13 5 -11 0 -14 -3 -6 -6z"/>
<path d="M4166 4498 c3 -5 10 -6 15 -3 13 9 11 12 -6 12 -8 0 -12 -4 -9 -9z"/>
<path d="M3661 4274 c0 -11 3 -14 6 -6 3 7 2 16 -1 19 -3 4 -6 -2 -5 -13z"/>
<path d="M2660 4996 c0 -2 7 -7 16 -10 8 -3 12 -2 9 4 -6 10 -25 14 -25 6z"/>
<path d="M2793 4985 c-105 -23 -121 -41 -88 -105 13 -25 22 -30 50 -30 19 0
35 -5 35 -11 0 -5 -16 -103 -36 -217 -26 -153 -36 -241 -37 -334 -2 -113 -4
-128 -19 -128 -21 0 -48 -37 -48 -65 0 -23 38 -65 59 -65 7 0 24 -9 38 -20
l25 -20 28 24 c15 12 76 39 135 60 324 112 517 277 565 485 46 196 -92 377
-325 426 -87 18 -297 18 -382 0z m166 -17 c11 -11 12 -10 7 0 -6 10 3 12 41 8
62 -7 181 -18 188 -17 11 1 133 -55 156 -72 13 -10 17 -15 9 -11 -12 7 -13 5
-3 -8 7 -8 10 -18 6 -22 -4 -4 0 -4 9 -1 10 4 27 -7 51 -36 20 -23 36 -44 35
-48 -1 -3 3 -24 9 -46 21 -76 26 -128 12 -120 -9 6 -11 3 -6 -8 3 -10 2 -17
-2 -17 -5 0 -7 -10 -3 -22 4 -16 2 -19 -8 -13 -10 6 -12 4 -7 -10 4 -9 2 -24
-4 -31 -6 -8 -9 -14 -6 -14 4 0 -5 -21 -18 -48 -24 -48 -68 -95 -79 -85 -3 4
-6 1 -6 -7 0 -10 -3 -10 -15 0 -11 9 -19 10 -26 3 -8 -8 -6 -11 6 -10 30 3 27
-20 -4 -33 -17 -7 -29 -15 -26 -19 2 -4 -5 -15 -17 -25 -17 -15 -22 -16 -29
-5 -7 11 -9 10 -9 -4 0 -10 -15 -24 -37 -35 -21 -9 -40 -19 -43 -22 -3 -3 -17
-11 -32 -17 -21 -9 -28 -9 -32 0 -3 7 -5 6 -5 -4 -1 -15 -59 -49 -84 -49 -7 0
-25 -7 -42 -16 -16 -9 -44 -16 -62 -17 -17 0 -29 -5 -27 -9 3 -5 -8 -11 -25
-14 -17 -4 -31 -10 -31 -14 0 -28 -103 -3 -115 28 -9 25 5 54 23 47 9 -3 13
-3 9 1 -4 4 0 15 8 24 10 12 15 46 16 135 1 109 18 242 29 231 3 -2 5 21 6 52
1 31 11 106 23 166 19 100 20 111 5 127 -9 10 -13 22 -9 28 3 7 0 8 -9 5 -9
-3 -14 -10 -11 -14 3 -5 -3 -8 -14 -7 -11 0 -18 4 -15 8 2 4 -3 9 -11 13 -8 3
-15 14 -15 25 0 15 5 19 17 14 10 -4 14 -2 10 5 -8 11 63 29 143 35 25 2 47 4
51 5 3 1 11 -4 18 -10z"/>
<path d="M3199 4948 c-5 -18 -6 -38 -1 -34 7 8 12 36 6 36 -2 0 -4 -1 -5 -2z"/>
<path d="M2884 4906 c2 -15 6 -29 9 -32 3 -4 5 6 3 20 -1 14 -5 29 -9 32 -3 3
-4 -6 -3 -20z"/>
<path d="M2970 4893 c-24 -5 -69 -31 -61 -36 2 -1 -2 -22 -9 -47 -7 -25 -14
-61 -16 -80 -3 -19 -9 -60 -15 -90 -6 -30 -13 -77 -16 -105 -2 -27 -8 -67 -13
-87 -4 -20 -5 -49 -2 -64 3 -18 1 -25 -6 -20 -7 4 -10 2 -7 -6 9 -26 12 -137
4 -132 -16 10 -9 -5 15 -30 28 -31 27 -31 107 -6 35 12 71 22 79 24 40 8 193
92 198 109 1 4 4 6 5 5 7 -5 37 24 33 31 -2 3 2 12 9 18 11 10 17 10 29 -3 9
-8 16 -11 16 -5 0 5 -4 13 -10 16 -5 3 -10 11 -10 16 0 6 4 7 10 4 5 -3 7 0 4
8 -3 8 2 20 11 27 9 7 15 8 15 2 0 -6 -6 -13 -12 -15 -10 -4 -10 -6 -1 -6 7
-1 17 9 24 20 8 15 8 19 0 15 -14 -9 -14 -10 9 57 24 68 26 144 4 195 -8 20
-14 38 -12 39 2 1 -1 5 -6 10 -5 5 -6 2 -2 -7 8 -16 1 -9 -39 41 -26 33 -121
85 -171 93 -65 10 -138 15 -164 9z m185 -44 c50 -15 80 -32 115 -65 63 -59 80
-97 80 -176 0 -158 -143 -310 -357 -378 -139 -45 -133 -48 -133 63 0 107 18
255 55 442 14 72 25 131 25 133 0 1 33 2 74 2 47 0 99 -8 141 -21z"/>
<path d="M3206 4428 c3 -4 11 -5 19 -1 21 7 19 12 -4 10 -11 0 -18 -5 -15 -9z"/>
<path d="M3315 4860 c3 -5 8 -10 11 -10 2 0 4 5 4 10 0 6 -5 10 -11 10 -5 0
-7 -4 -4 -10z"/>
<path d="M2821 4464 c0 -11 3 -14 6 -6 3 7 2 16 -1 19 -3 4 -6 -2 -5 -13z"/>
<path d="M3382 4427 c13 -10 15 -16 6 -25 -8 -8 -9 -12 -1 -12 22 0 22 30 0
40 -20 10 -20 10 -5 -3z"/>
<path d="M3336 4393 c-6 -14 -5 -15 5 -6 7 7 10 15 7 18 -3 3 -9 -2 -12 -12z"/>
<path d="M3266 4316 c7 -19 20 -21 30 -3 4 6 4 9 -1 5 -4 -4 -14 -3 -22 4 -11
8 -12 7 -7 -6z"/>
<path d="M3245 4300 c3 -5 8 -10 11 -10 2 0 4 5 4 10 0 6 -5 10 -11 10 -5 0
-7 -4 -4 -10z"/>
<path d="M3505 4799 c-4 -6 -5 -12 -2 -15 2 -3 7 2 10 11 7 17 1 20 -8 4z"/>
<path d="M3995 4591 c-3 -5 -2 -12 3 -15 5 -3 9 1 9 9 0 17 -3 19 -12 6z"/>
<path d="M2606 4552 c-3 -5 1 -9 9 -9 8 0 12 4 9 9 -3 4 -7 8 -9 8 -2 0 -6 -4
-9 -8z"/>
<path d="M2544 4480 c0 -13 4 -16 10 -10 7 7 7 13 0 20 -6 6 -10 3 -10 -10z"/>
<path d="M3411 4303 c-1 -17 16 -25 25 -12 4 7 3 9 -4 5 -5 -3 -13 0 -15 6 -4
9 -6 10 -6 1z"/>
<path d="M4470 3995 l-75 -104 -55 -6 c-75 -9 -240 -42 -248 -50 -7 -6 65 0
116 11 13 3 22 -1 23 -8 2 -26 -3 -53 -12 -62 -5 -6 -9 -21 -9 -34 0 -17 -4
-22 -14 -19 -10 4 -16 -5 -21 -30 -3 -19 -4 -38 -1 -41 9 -8 69 128 70 159 2
52 25 32 28 -23 l3 -53 45 62 c25 34 54 65 65 69 11 3 28 14 39 23 18 15 18
15 11 -9 -4 -14 -20 -53 -35 -88 -16 -34 -27 -68 -24 -75 2 -7 -7 -28 -21 -47
-28 -38 -34 -60 -9 -36 8 9 20 13 26 10 6 -4 8 -3 5 3 -10 15 55 197 75 209
14 9 37 -16 31 -33 -5 -12 -3 -14 8 -8 11 6 12 5 2 -5 -9 -9 -9 -18 -1 -33 7
-14 7 -22 -1 -27 -9 -5 -8 -10 2 -18 15 -13 19 6 19 93 0 64 0 65 -32 65 -16
0 -30 2 -30 5 0 3 23 49 50 102 28 52 49 97 48 99 -2 1 -37 -44 -78 -101z
m-155 -179 c-15 -20 -28 -36 -29 -36 0 0 -1 16 -1 35 0 21 4 34 11 31 6 -2 17
0 25 4 24 15 22 2 -6 -34z"/>
<path d="M4407 4023 c3 -7 6 -13 8 -13 2 0 5 6 8 13 3 8 -1 14 -8 14 -7 0 -11
-6 -8 -14z"/>
<path d="M1708 4013 c7 -3 16 -2 19 1 4 3 -2 6 -13 5 -11 0 -14 -3 -6 -6z"/>
<path d="M2850 4010 c-9 -6 -10 -10 -3 -10 6 0 15 5 18 10 8 12 4 12 -15 0z"/>
<path d="M1645 3970 c-4 -7 58 -18 200 -36 28 -4 47 -4 43 1 -10 10 -238 43
-243 35z"/>
<path d="M4516 3963 c-6 -14 -5 -15 5 -6 7 7 10 15 7 18 -3 3 -9 -2 -12 -12z"/>
<path d="M4305 3950 c-3 -5 1 -10 9 -10 9 0 16 5 16 10 0 6 -4 10 -9 10 -6 0
-13 -4 -16 -10z"/>
<path d="M1620 3931 c0 -14 61 -30 140 -35 76 -6 134 -12 180 -20 9 -1 20 -4
25 -7 6 -3 25 -5 43 -3 17 1 32 -2 32 -7 0 -5 7 -9 15 -9 16 0 20 16 6 24 -5
3 -29 7 -53 9 -25 2 -50 7 -57 11 -6 4 -26 9 -44 11 -18 3 -70 9 -117 15 -115
14 -170 18 -170 11z"/>
<path d="M4102 3924 c-29 -6 -61 -19 -71 -28 -10 -9 -34 -16 -54 -16 -25 0
-39 -6 -46 -18 -5 -10 -19 -18 -31 -19 -20 -2 -20 -2 2 17 13 10 20 21 17 24
-7 7 -71 -16 -84 -30 -5 -7 -27 -15 -47 -18 -36 -6 -75 -33 -64 -43 3 -3 12 2
21 11 18 18 35 21 35 7 0 -6 12 -6 30 -1 17 5 34 9 37 9 4 0 9 5 12 12 2 7 -1
9 -10 4 -12 -7 -12 -5 -1 6 9 10 15 11 20 2 4 -6 24 -10 44 -10 20 1 34 5 31
10 -3 5 8 7 23 6 16 -2 40 3 54 11 14 8 31 13 37 12 7 -2 10 3 7 11 -3 8 2 14
11 14 8 0 15 -3 15 -6 0 -11 109 -6 120 5 17 17 1 41 -28 41 -15 0 -51 -6 -80
-13z m68 -23 c0 -4 -11 -6 -25 -3 -14 2 -25 6 -25 8 0 2 11 4 25 4 14 0 25 -4
25 -9z"/>
<path d="M4230 3930 c0 -4 12 -10 26 -13 18 -3 22 -1 15 6 -13 13 -41 18 -41
7z"/>
<path d="M2080 3903 c19 -8 29 -17 23 -20 -25 -9 -12 -21 20 -18 17 2 36 0 41
-2 4 -3 29 -7 54 -9 25 -2 49 -9 54 -16 4 -7 8 -10 8 -5 0 4 16 1 35 -8 25
-10 34 -11 29 -2 -4 7 5 1 20 -13 18 -16 37 -23 57 -22 17 1 28 -2 25 -7 -8
-13 30 -21 42 -9 7 7 19 2 36 -15 14 -14 26 -22 26 -17 0 6 7 10 17 10 14 0
14 2 -3 21 -13 14 -25 18 -43 14 -21 -5 -23 -4 -12 8 9 12 7 16 -16 22 -31 9
-31 9 -55 0 -12 -5 -18 -2 -18 8 0 8 -7 18 -16 21 -12 5 -15 2 -10 -10 4 -10
1 -14 -6 -12 -7 3 -13 11 -13 19 -1 8 -7 12 -15 11 -8 -2 -49 6 -90 18 -152
44 -177 50 -201 50 -21 -1 -20 -3 11 -17z"/>
<path d="M1540 3894 c0 -8 5 -12 10 -9 6 4 8 11 5 16 -9 14 -15 11 -15 -7z"/>
<path d="M1630 3876 c0 -11 -17 -16 -70 -22 -38 -3 -70 -11 -70 -16 0 -5 -9
-6 -20 -3 -11 3 -20 2 -20 -3 0 -14 34 -25 38 -13 6 17 16 13 31 -11 13 -21
13 -22 -3 -9 -9 8 -19 11 -22 8 -9 -9 19 -34 33 -30 7 3 20 0 30 -5 13 -7 24
-6 36 3 25 18 21 26 -12 20 -17 -3 -33 0 -37 7 -5 7 -3 8 6 3 10 -6 12 -4 7 8
-3 10 -2 17 3 17 6 0 10 -5 10 -12 0 -6 7 -3 16 8 8 10 13 12 9 4 -4 -9 -1 -8
8 3 22 26 25 9 26 -155 2 -133 0 -147 -16 -151 -17 -4 -17 -5 0 -6 10 -1 17
-9 17 -21 0 -15 -7 -20 -25 -20 -14 0 -24 -3 -24 -7 3 -21 -2 -37 -9 -27 -4 6
-19 14 -34 18 -25 6 -28 3 -28 -17 0 -23 17 -47 33 -47 4 0 6 10 3 23 -3 12
-3 17 0 10 3 -7 11 -10 19 -7 7 3 16 1 20 -5 3 -7 0 -8 -9 -5 -11 4 -13 0 -9
-15 5 -18 1 -21 -26 -21 -17 0 -31 -5 -31 -11 0 -6 8 -8 19 -4 14 4 23 0 31
-15 8 -15 8 -20 -1 -20 -22 0 0 -13 26 -16 19 -2 25 2 25 17 0 11 -7 19 -17
19 -10 0 -14 4 -8 8 11 7 17 33 16 68 0 12 10 26 23 34 29 15 39 66 31 149 -9
97 -13 228 -6 237 9 13 29 16 86 14 28 -1 65 -2 83 -2 17 0 32 -3 32 -8 0 -4
10 -6 22 -2 13 3 19 1 15 -5 -5 -7 1 -9 15 -5 16 4 19 2 13 -9 -7 -11 -6 -12
6 -2 11 9 25 10 47 3 18 -5 32 -6 32 -3 0 3 7 -1 17 -8 13 -11 17 -11 21 -1 3
9 8 10 16 3 6 -5 45 -13 86 -17 41 -3 83 -10 92 -15 9 -5 30 -9 47 -9 16 0 32
-4 35 -9 3 -5 23 -12 43 -15 53 -9 146 -37 158 -48 5 -4 19 -8 31 -8 13 0 25
-4 29 -10 3 -5 12 -7 20 -3 8 3 15 0 15 -6 0 -6 9 -11 21 -11 13 0 18 -4 13
-12 -5 -8 -2 -9 9 -5 10 3 17 2 17 -4 0 -6 6 -9 13 -6 6 2 25 -7 40 -20 16
-13 33 -21 38 -17 5 3 9 0 9 -6 0 -6 4 -9 9 -6 5 4 11 1 13 -5 2 -5 15 -12 29
-13 27 -3 91 -46 160 -107 38 -33 41 -40 42 -91 1 -65 -12 -87 -48 -80 -16 3
-25 0 -25 -9 0 -7 -3 -9 -7 -6 -9 10 -43 -44 -43 -69 0 -20 -17 -44 -31 -44
-4 0 -15 7 -23 16 -10 9 -16 11 -16 4 0 -6 -13 -2 -29 10 -18 12 -32 16 -36
10 -7 -12 -36 -14 -33 -2 1 4 -4 25 -10 47 -6 22 -13 51 -16 65 -7 40 -19 64
-37 77 -10 7 -27 29 -39 48 -12 19 -26 35 -31 35 -10 0 -62 35 -87 58 -12 10
-52 19 -41 8 20 -20 112 -76 124 -76 8 0 15 -9 15 -20 0 -11 4 -20 8 -20 20 0
70 -88 77 -135 4 -27 11 -52 15 -55 15 -9 -11 -99 -33 -117 -23 -18 -28 -36
-14 -49 12 -12 8 -24 -8 -24 -8 0 -15 4 -15 8 0 5 -30 30 -67 57 -38 26 -73
53 -78 59 -6 6 -26 25 -44 41 -28 25 -32 26 -22 8 6 -12 16 -25 21 -28 6 -3
10 -11 10 -16 0 -6 -3 -8 -7 -6 -5 3 -30 8 -58 11 -70 8 -101 15 -148 31 -23
8 -54 15 -69 15 -34 0 -58 24 -59 58 -2 79 0 133 7 154 7 22 7 22 15 3 6 -17
8 -17 8 -2 1 26 15 21 55 -19 32 -32 49 -30 28 3 -8 12 -103 63 -119 63 -12 0
-16 -202 -4 -234 6 -14 16 -28 23 -30 100 -29 171 -48 190 -50 12 -1 31 -6 41
-10 10 -5 31 -6 47 -2 17 3 30 1 30 -4 0 -6 10 -10 23 -10 23 0 163 -86 187
-115 11 -13 6 -18 -31 -34 -24 -11 -65 -22 -91 -26 -27 -4 -48 -12 -48 -17 0
-6 20 -7 53 -3 l52 7 -19 -21 c-11 -11 -17 -21 -14 -21 3 0 -1 -26 -8 -57
l-13 -58 44 -44 45 -44 -17 -28 c-10 -16 -20 -29 -24 -29 -3 0 -11 -11 -17
-24 -8 -18 -7 -30 3 -50 8 -15 10 -24 5 -21 -6 3 -7 -1 -4 -9 3 -9 10 -14 14
-11 4 3 11 -2 14 -11 4 -10 2 -13 -7 -9 -6 4 -2 -2 11 -13 12 -11 22 -25 22
-30 0 -6 15 -9 33 -7 51 4 89 -5 77 -20 -5 -6 -7 -15 -3 -19 17 -17 10 -36
-13 -36 -14 0 -23 4 -20 9 5 8 -91 56 -106 53 -5 -1 -8 2 -8 8 0 5 -7 10 -16
10 -9 0 -12 5 -8 12 5 8 0 9 -14 6 -12 -4 -20 -2 -16 3 3 5 -2 10 -10 10 -25
2 -28 3 -81 29 -27 13 -55 24 -61 25 -6 0 -18 6 -27 13 -8 7 -21 12 -29 11 -7
-1 -26 3 -43 10 -16 7 -45 15 -63 18 -24 4 -30 8 -20 15 9 6 6 8 -12 7 -14 -1
-32 1 -40 4 -8 4 -28 9 -44 11 -37 7 -41 11 -42 49 -2 89 -5 107 -15 107 -8 0
-10 -23 -7 -70 4 -77 -5 -91 -20 -32 l-9 37 -8 -43 c-4 -23 -12 -45 -16 -48
-16 -10 -31 50 -26 104 3 28 2 52 -2 52 -11 0 -23 -74 -15 -94 5 -13 -3 -16
-51 -16 -38 0 -54 3 -49 11 4 8 1 8 -12 1 -13 -6 -27 -6 -44 1 -14 5 -38 11
-55 11 -68 3 -70 7 -70 106 0 50 -4 92 -10 94 -6 3 -6 5 1 5 14 1 9 88 -7 107
-13 15 -99 20 -99 5 0 -5 20 -12 45 -15 l45 -7 0 -160 0 -159 34 0 c19 0 38
-5 42 -11 4 -7 9 -8 13 -1 3 5 21 7 39 5 28 -5 32 -8 26 -26 -6 -20 -6 -20 10
-4 18 18 46 23 46 8 0 -5 24 -8 53 -7 l52 1 3 -47 c4 -59 17 -62 33 -8 7 22
14 40 16 40 19 0 181 -47 279 -80 272 -94 510 -233 695 -407 37 -35 69 -63 73
-63 4 0 6 36 5 80 -2 107 -34 180 -76 180 -17 0 -43 -12 -63 -28 l-34 -29 -58
30 -58 30 6 54 c6 44 3 57 -12 74 -15 17 -26 19 -69 14 l-50 -7 -29 59 -28 60
36 39 c50 54 42 83 -36 138 -15 11 -16 19 -6 78 l12 66 44 5 c27 3 53 13 65
26 21 21 21 22 3 72 l-18 52 47 47 47 48 44 -25 c39 -22 48 -24 74 -13 25 11
31 19 36 61 l6 48 54 7 c53 6 54 7 54 40 0 24 5 34 15 34 8 0 15 5 15 11 0 6
-6 9 -14 6 -11 -4 -13 5 -12 44 1 33 -3 50 -12 54 -8 3 -12 16 -10 29 1 13 -5
33 -16 44 -26 30 -139 82 -176 82 -17 0 -33 6 -36 13 -2 7 -13 13 -24 14 -11
1 -35 12 -53 25 -17 13 -41 23 -52 23 -12 0 -19 6 -17 14 2 9 -3 11 -14 7 -11
-4 -22 1 -31 14 -15 21 -33 27 -33 10 0 -5 7 -10 16 -10 8 0 12 -4 9 -10 -4
-6 -12 -6 -23 0 -15 8 -141 47 -181 55 -28 6 -184 45 -241 61 -30 9 -62 16
-70 16 -8 -1 -47 4 -87 9 -39 6 -93 12 -120 14 -96 9 -169 16 -205 21 -30 5
-38 2 -38 -10z m1287 -317 c56 -31 99 -66 91 -74 -4 -4 -134 78 -152 96 -18
17 2 9 61 -22z m-234 -562 c-3 -5 -10 -3 -15 4 -7 10 -9 9 -5 -7 4 -18 0 -20
-22 -16 -17 4 -21 7 -11 10 8 3 21 14 29 25 10 15 15 16 22 6 4 -7 5 -17 2
-22z m313 -693 c1 -12 5 -28 10 -35 9 -13 13 -99 6 -99 -2 0 -22 14 -44 31
-30 25 -36 34 -26 41 9 7 8 8 -6 4 -11 -4 -27 0 -38 11 -19 17 -19 18 14 45
40 34 82 34 84 2z"/>
<path d="M3683 3865 c0 -8 4 -12 9 -9 5 3 6 10 3 15 -9 13 -12 11 -12 -6z"/>
<path d="M4586 3868 c3 -5 10 -6 15 -3 13 9 11 12 -6 12 -8 0 -12 -4 -9 -9z"/>
<path d="M2530 3866 c0 -2 7 -7 16 -10 8 -3 12 -2 9 4 -6 10 -25 14 -25 6z"/>
<path d="M4556 3838 c5 -32 5 -32 -11 -13 l-17 20 4 -20 c2 -11 14 -25 28 -31
l25 -11 -27 -5 c-15 -3 -25 -1 -22 3 3 5 1 9 -5 9 -7 0 -8 -23 -4 -62 4 -45
12 -68 26 -80 11 -10 15 -18 9 -18 -7 0 -12 -5 -12 -11 0 -6 7 -9 15 -5 25 9
17 -10 -10 -22 -32 -15 -31 -24 2 -39 36 -17 44 -16 36 3 -3 8 -12 13 -20 10
-9 -4 -13 -1 -10 6 2 7 10 13 18 13 8 0 20 4 27 9 11 6 10 12 -4 27 -17 18
-16 20 2 33 10 8 15 18 11 23 -5 4 -13 0 -18 -10 -16 -27 -42 -22 -35 7 4 16
0 30 -9 40 -9 8 -15 19 -15 23 3 15 22 33 30 28 16 -10 19 12 8 51 -6 21 -11
42 -10 47 1 4 -2 7 -8 7 -5 0 -7 -14 -4 -32z"/>
<path d="M4020 3830 c-19 -5 -55 -11 -78 -15 -86 -12 -219 -47 -327 -86 -60
-23 -116 -42 -122 -44 -15 -5 -18 -25 -4 -25 5 0 25 7 44 15 20 8 47 15 59 15
13 0 45 12 72 26 26 14 45 21 42 15 -4 -5 2 -9 13 -8 11 0 18 4 15 8 -5 9 75
41 87 34 5 -4 9 -2 9 2 0 5 8 9 18 9 24 2 84 14 94 20 15 10 53 17 90 18 20 1
34 4 32 8 -2 3 2 9 8 11 20 8 -12 6 -52 -3z"/>
<path d="M1385 3819 c4 -6 14 -8 22 -5 11 4 13 2 9 -9 -3 -8 -1 -15 4 -15 6 0
10 9 10 20 0 15 -7 20 -26 20 -15 0 -23 -4 -19 -11z"/>
<path d="M1366 3793 c-6 -14 -5 -15 5 -6 7 7 10 15 7 18 -3 3 -9 -2 -12 -12z"/>
<path d="M3630 3796 c0 -2 7 -9 15 -16 9 -7 15 -8 15 -2 0 5 -7 12 -15 16 -8
3 -15 4 -15 2z"/>
<path d="M3690 3785 c-7 -9 -8 -15 -2 -15 5 0 12 7 16 15 3 8 4 15 2 15 -2 0
-9 -7 -16 -15z"/>
<path d="M1440 3781 c0 -6 9 -9 20 -8 11 1 20 5 20 9 0 4 -9 8 -20 8 -11 0
-20 -4 -20 -9z"/>
<path d="M1390 3770 c0 -5 5 -10 10 -10 6 0 10 5 10 10 0 6 -4 10 -10 10 -5 0
-10 -4 -10 -10z"/>
<path d="M2590 3760 c0 -5 23 -21 50 -35 45 -23 51 -24 57 -9 6 17 -18 39 -27
24 -3 -5 -19 0 -35 10 -33 22 -45 25 -45 10z m100 -40 c0 -5 -2 -10 -4 -10 -3
0 -8 5 -11 10 -3 6 -1 10 4 10 6 0 11 -4 11 -10z"/>
<path d="M1492 3744 c10 -10 20 -16 22 -13 3 3 -5 11 -17 18 -21 13 -21 12 -5
-5z"/>
<path d="M1530 3745 c7 -8 17 -15 22 -15 5 0 3 7 -6 15 -8 8 -18 15 -22 15 -3
0 -1 -7 6 -15z"/>
<path d="M1577 3736 c-13 -16 -25 -22 -40 -19 -15 3 -18 2 -9 -4 7 -5 10 -17
7 -25 -7 -16 14 -30 53 -34 25 -3 26 -1 11 27 -5 11 -14 17 -20 14 -16 -11
-10 12 8 26 15 12 16 12 8 -1 -6 -12 -5 -12 5 -3 8 7 9 17 3 27 -7 13 -11 12
-26 -8z"/>
<path d="M1733 3749 c10 -6 58 -21 105 -34 48 -13 106 -30 130 -38 23 -8 42
-11 42 -6 0 6 -7 12 -15 15 -8 4 -15 14 -15 23 0 12 -2 13 -8 3 -7 -10 -20
-10 -68 2 -32 7 -70 18 -84 23 -14 6 -43 13 -65 17 -32 5 -36 4 -22 -5z"/>
<path d="M3536 3742 c-4 -3 -16 -7 -28 -9 -12 -2 -27 -8 -34 -14 -7 -6 -21 -9
-31 -8 -17 2 -32 -4 -138 -49 -22 -9 -59 -31 -81 -49 l-42 -31 -28 29 c-35 36
-43 30 -14 -10 l23 -30 -33 -41 -32 -41 -50 47 c-59 56 -78 51 -22 -6 63 -66
69 -67 114 -24 21 21 36 42 33 47 -3 5 6 1 21 -8 14 -10 26 -13 26 -7 0 15 92
71 115 69 12 -1 19 3 17 12 -4 17 30 41 88 63 133 48 140 52 116 61 -8 3 -17
3 -20 -1z m-170 -71 c-11 -17 -157 -113 -164 -107 -7 8 18 27 101 79 63 39 72
43 63 28z"/>
<path d="M1710 3724 c7 -11 34 -29 61 -42 27 -13 47 -28 44 -33 -4 -5 2 -6 11
-2 10 3 15 2 12 -3 -3 -5 13 -10 36 -11 l41 -2 -54 25 c-29 13 -78 38 -108 55
-42 24 -52 27 -43 13z"/>
<path d="M1418 3723 l-58 -4 0 -627 0 -627 228 0 c448 -1 821 -80 1207 -255
81 -36 178 -90 173 -96 -3 -2 -58 19 -124 47 -403 172 -863 260 -1284 245
-102 -4 -209 -10 -237 -15 l-53 -7 0 543 0 543 -72 0 -73 0 3 -696 2 -696 28
6 c190 40 476 66 724 66 250 0 395 -11 677 -51 l214 -31 35 -35 c19 -20 60
-47 91 -62 50 -23 68 -26 171 -26 105 0 120 2 170 27 30 15 72 43 92 62 37 34
38 35 250 65 287 40 429 51 687 51 223 0 446 -17 636 -49 l105 -17 0 693 0
693 -70 0 -70 0 0 -546 c0 -478 -2 -545 -15 -540 -8 3 -74 11 -147 17 -256 23
-597 -3 -885 -66 -141 -31 -407 -119 -534 -176 -100 -45 -132 -47 -47 -2 411
214 839 313 1354 313 l184 0 0 625 0 625 -65 0 -65 0 0 -312 c0 -188 4 -307 9
-299 7 12 10 11 14 -5 2 -10 3 -8 2 6 -2 14 1 33 7 44 7 14 7 17 -2 11 -9 -6
-11 3 -7 34 3 26 1 38 -6 34 -7 -4 -7 9 -2 38 5 24 9 125 10 224 1 99 3 186 3
193 2 15 32 16 32 1 0 -5 5 -7 10 -4 6 3 10 0 10 -7 0 -9 3 -9 10 2 9 13 10
13 11 0 1 -8 1 -19 -1 -25 -1 -5 -1 -262 -1 -572 1 -309 -1 -568 -4 -575 -4
-10 -39 -13 -153 -11 -81 1 -190 -3 -242 -8 -52 -5 -117 -11 -145 -14 -27 -3
-70 -9 -95 -14 -27 -6 -46 -6 -48 0 -2 5 -12 4 -24 -2 -11 -6 -26 -8 -34 -5
-9 3 -12 1 -9 -4 3 -6 -4 -11 -17 -12 -26 -1 -29 -2 -83 -13 -22 -5 -46 -8
-54 -6 -7 1 -10 -2 -6 -8 4 -8 -2 -8 -19 -1 -21 8 -24 7 -19 -7 5 -13 3 -14
-18 -3 -13 7 -20 9 -16 4 7 -8 -163 -67 -171 -60 -7 8 112 56 137 56 20 0 23
2 11 10 -12 8 -12 10 5 10 11 0 43 8 70 19 71 26 108 34 100 21 -9 -15 1 -12
19 6 9 9 24 17 34 19 9 2 17 4 17 5 0 2 6 3 145 28 58 11 110 17 116 15 7 -2
15 0 19 6 4 7 22 9 46 5 21 -4 39 -2 39 3 0 5 8 9 18 9 176 7 279 16 290 28 9
9 13 44 14 112 1 54 5 104 10 111 5 7 5 14 -2 18 -5 3 -10 27 -10 53 0 36 3
44 11 32 9 -12 9 -11 3 5 -5 11 -9 47 -10 79 -1 50 -5 63 -27 81 -19 17 -23
25 -14 34 9 9 8 11 -5 6 -11 -4 -18 -2 -18 4 0 6 5 11 10 11 15 0 12 48 -2 53
-10 3 -10 7 0 19 8 10 9 19 4 22 -6 3 -12 -1 -16 -9 -3 -8 -10 -15 -15 -15
-15 0 -62 -50 -48 -51 7 -1 26 -1 42 0 21 1 26 -2 16 -8 -7 -5 -11 -13 -8 -17
3 -5 -11 -10 -30 -10 -19 -1 -39 -7 -43 -14 -6 -9 -9 -9 -13 1 -5 12 -7 11
-16 -1 -5 -8 -10 -75 -9 -155 0 -206 0 -216 -14 -214 -30 5 -178 -14 -178 -23
0 -6 -10 -8 -22 -5 -12 3 -28 2 -37 -3 -9 -4 -43 -11 -75 -15 l-59 -8 6 32 c4
17 10 45 13 61 4 18 2 30 -4 30 -10 0 -25 -63 -31 -134 -1 -5 -4 -6 -8 -2 -8
7 -8 13 -11 84 -2 45 -8 50 -37 29 -14 -11 -15 -16 -5 -22 9 -5 11 -4 6 3 -4
7 -3 12 2 12 14 0 22 -26 22 -69 0 -42 15 -34 -187 -103 -35 -11 -60 -25 -56
-31 3 -5 0 -7 -8 -5 -8 3 -13 12 -11 19 1 8 -5 5 -15 -6 -10 -11 -26 -19 -37
-17 -10 2 -16 0 -12 -6 3 -6 -8 -15 -24 -21 -17 -5 -30 -8 -30 -5 0 7 -84 -37
-91 -48 -4 -6 -9 4 -11 21 -3 18 -1 34 3 37 4 2 7 44 6 92 -2 68 1 86 11 84 8
-1 11 2 7 8 -4 6 -9 9 -12 6 -7 -6 -32 17 -27 25 2 4 -9 12 -25 18 -27 12 -30
20 -22 64 0 4 7 7 15 7 8 0 24 12 36 28 12 15 18 21 14 13 -5 -9 -3 -12 5 -7
6 4 9 11 6 15 -5 9 108 111 122 111 5 0 20 12 34 26 l24 27 -35 -18 c-35 -19
-80 -26 -80 -14 0 9 71 43 90 44 8 0 14 6 12 13 -1 6 5 12 13 12 8 0 15 5 15
10 0 18 -15 11 -126 -55 -60 -36 -112 -65 -116 -65 -14 0 -14 36 0 53 13 15
13 17 -1 17 -24 0 -20 12 9 34 19 13 29 15 37 7 23 -23 35 -12 27 24 -6 25 -4
35 4 35 7 0 20 32 29 73 22 94 21 115 -3 53 -11 -27 -17 -53 -14 -58 3 -5 -1
-17 -10 -26 -9 -9 -39 -43 -67 -74 -39 -43 -55 -55 -67 -49 -10 5 -26 2 -46
-10 -40 -23 -84 -31 -108 -18 -18 10 -19 38 -2 101 4 12 -7 23 -37 38 l-41 22
-37 -34 c-34 -32 -38 -34 -75 -24 -31 8 -42 18 -59 53 -17 34 -26 43 -46 43
-56 0 -69 -10 -81 -60 -10 -42 -16 -49 -49 -62 -36 -14 -40 -14 -77 8 -21 13
-41 24 -44 24 -3 0 -20 -14 -39 -31 l-34 -31 23 -47 22 -47 -21 -36 c-19 -31
-28 -36 -70 -42 -47 -6 -49 -8 -60 -49 -10 -40 -9 -43 17 -65 15 -12 35 -25
44 -28 12 -3 18 -18 20 -47 3 -36 -2 -47 -31 -79 -34 -37 -34 -37 -18 -75 15
-38 16 -38 71 -38 46 0 60 -4 80 -25 24 -23 25 -29 17 -78 l-8 -53 39 -20 38
-20 39 31 c33 27 43 30 77 24 35 -5 42 -11 58 -50 17 -41 21 -44 54 -44 50 0
63 11 69 56 4 33 11 43 45 61 l39 22 42 -29 42 -29 34 33 33 34 -17 45 c-16
43 -16 46 4 86 12 22 25 40 29 40 4 -1 26 -1 48 0 37 1 42 4 47 29 3 15 8 34
11 42 4 10 -8 24 -39 43 -41 26 -45 32 -45 68 0 34 7 46 43 80 40 39 181 129
201 129 5 0 -11 -14 -35 -32 -24 -17 -74 -58 -110 -90 -82 -73 -86 -95 -24
-139 41 -30 42 -32 34 -67 -5 -20 -12 -49 -15 -64 -6 -26 -10 -28 -53 -28 -41
0 -48 -4 -63 -30 -16 -29 -16 -32 3 -77 11 -25 16 -49 12 -53 -4 -4 -27 -24
-50 -44 l-42 -37 -44 26 c-39 22 -48 24 -71 14 -18 -9 -27 -22 -32 -48 -9 -57
-10 -58 -58 -65 l-46 -7 0 -92 0 -91 33 35 c61 66 203 177 319 252 126 80 321
169 356 162 14 -2 31 5 47 21 13 13 30 24 37 24 7 0 2 -9 -12 -20 -14 -11 -20
-20 -14 -20 6 0 24 12 40 27 16 15 56 35 89 45 89 28 338 76 433 84 81 7 82 7
82 34 0 29 19 40 68 40 34 0 62 21 49 35 -9 9 -15 9 -25 -2 -7 -7 -32 -13 -55
-13 -37 1 -40 2 -24 14 20 15 22 27 5 24 -6 -2 -13 4 -15 13 -3 13 7 17 47 22
28 3 57 13 66 22 18 17 3 20 -27 5 -17 -9 -19 -7 -19 16 0 20 -4 25 -16 20
-10 -4 -14 -1 -11 6 2 7 13 12 23 10 16 -2 17 -1 4 8 -11 9 -12 13 -2 17 15 6
16 23 2 23 -6 0 -15 -11 -22 -25 -6 -13 -14 -22 -18 -20 -4 2 -6 -6 -5 -18 1
-15 8 -21 21 -19 17 2 16 0 -5 -18 -13 -11 -26 -20 -30 -20 -7 0 -5 200 3 207
2 2 25 5 50 6 33 1 46 -2 46 -12 0 -8 7 -11 19 -8 19 5 20 -3 20 -233 l0 -237
-152 -6 c-254 -11 -546 -69 -771 -153 -176 -66 -502 -250 -609 -344 -26 -23
-50 -39 -55 -36 -28 17 -402 129 -504 151 -257 55 -374 67 -693 72 -289 5
-422 -3 -572 -33 -28 -5 -31 -4 -27 13 7 25 105 39 376 54 422 24 906 -47
1244 -181 41 -17 79 -28 84 -25 5 3 22 -2 37 -11 28 -16 28 -16 -2 10 -53 47
-286 188 -410 248 -288 139 -709 238 -1012 238 l-93 0 0 245 0 245 54 0 c34 0
56 -5 59 -12 4 -10 8 -9 16 2 9 13 11 13 11 -2 0 -10 5 -18 11 -18 12 0 4 16
-23 46 -15 17 -26 20 -56 15 -54 -9 -77 -7 -74 7 1 7 -2 12 -7 12 -6 0 -10 -8
-10 -17 0 -10 -3 -38 -6 -63 -6 -49 -6 -272 0 -389 5 -93 10 -96 139 -96 52 0
93 -2 90 -6 -2 -4 21 -6 51 -4 38 3 53 0 49 -7 -5 -8 3 -9 25 -5 18 4 30 3 26
-2 -3 -5 3 -7 14 -4 10 2 35 0 55 -5 27 -8 34 -8 29 1 -4 7 0 7 10 -1 9 -8 21
-11 26 -8 5 4 12 2 16 -4 3 -5 21 -10 39 -10 17 0 36 -4 42 -9 5 -5 25 -11 44
-13 19 -2 35 -8 35 -15 0 -6 4 -15 9 -20 5 -5 6 -2 1 6 -6 11 -3 13 13 9 12
-4 20 -2 16 3 -3 5 0 9 6 9 6 0 13 -7 16 -15 5 -12 10 -13 20 -4 9 8 14 8 14
1 0 -6 -5 -14 -10 -17 -6 -4 -8 -11 -5 -16 6 -8 -43 -3 -75 8 -8 3 -24 7 -35
8 -22 3 -145 24 -183 31 -13 3 -20 9 -16 15 4 8 1 8 -13 0 -12 -6 -44 -8 -79
-4 -33 3 -146 6 -251 7 -168 0 -193 2 -194 15 -1 9 -2 278 -3 598 l-1 581 34
6 c19 3 36 4 38 2 7 -6 8 -234 2 -230 -4 2 -10 -3 -13 -12 -9 -24 -7 -31 5
-14 9 12 10 11 6 -7 -3 -13 -2 -25 3 -28 9 -5 4 -150 -5 -166 -4 -6 -4 -14 1
-18 5 -3 10 -17 12 -31 1 -14 3 -30 4 -36 1 -6 24 -12 52 -13 28 -1 60 -3 70
-4 10 -1 21 4 24 12 3 8 0 11 -7 7 -6 -4 -11 -3 -11 2 0 6 -25 9 -55 9 l-55
-2 0 283 c0 155 -3 281 -7 280 -5 -1 -34 -3 -65 -5z m-188 -298 c-2 -96 11
-1045 14 -1097 3 -39 1 -68 -5 -68 -17 0 -9 -19 14 -34 19 -13 31 -13 77 -3
30 7 83 12 118 11 34 -1 62 1 62 5 0 15 263 18 535 5 72 -3 137 -6 145 -6 8 0
33 -4 55 -9 22 -4 63 -11 91 -14 28 -3 59 -7 70 -9 10 -2 52 -9 92 -16 39 -7
72 -17 72 -22 0 -4 21 -8 46 -8 25 0 53 -4 63 -10 10 -5 31 -11 46 -14 16 -3
32 -11 36 -18 4 -7 11 -9 15 -5 4 4 18 0 31 -8 15 -10 23 -11 23 -4 0 6 15 2
35 -10 20 -11 42 -18 52 -14 11 4 14 3 9 -5 -5 -8 2 -12 21 -12 16 0 35 -6 42
-12 11 -10 12 -10 7 -1 -4 8 4 6 21 -4 22 -12 41 -14 76 -9 26 4 45 11 42 15
-2 5 7 7 22 5 14 -1 33 1 42 6 53 26 71 32 85 27 9 -4 16 -2 16 3 0 12 67 33
80 25 6 -4 9 -1 8 6 -2 9 27 19 92 31 52 10 100 20 105 21 71 23 145 38 210
42 17 1 32 3 35 5 9 5 72 10 297 25 266 18 743 -7 727 -39 -4 -6 5 1 18 16
l24 26 3 594 c1 326 5 596 9 600 4 4 22 4 40 0 l32 -7 0 -615 c1 -338 1 -634
0 -657 l0 -41 -42 5 c-24 2 -104 14 -178 26 -116 18 -180 21 -450 21 -173 1
-358 -3 -410 -7 -52 -5 -104 -8 -115 -8 -11 0 -33 -4 -50 -9 -16 -5 -73 -14
-125 -19 -52 -6 -115 -13 -140 -17 -25 -4 -61 -7 -81 -8 -25 -1 -35 -5 -32
-14 4 -8 0 -10 -13 -5 -11 4 -15 3 -11 -4 10 -16 -62 -73 -81 -65 -9 3 -13 1
-9 -5 8 -13 -20 -26 -35 -16 -6 3 -8 1 -4 -5 9 -15 -87 -26 -182 -20 -70 4
-83 9 -144 47 -38 24 -68 49 -68 57 0 9 -4 13 -8 10 -5 -3 -27 2 -50 9 -23 8
-63 17 -89 21 -77 9 -95 12 -143 19 -25 4 -55 6 -68 6 -13 -1 -37 5 -55 12
-18 6 -71 12 -118 12 -48 0 -83 3 -78 6 9 5 -125 10 -326 11 -72 1 -227 -7
-360 -17 -66 -6 -270 -34 -317 -44 l-38 -8 -2 659 c-2 362 0 662 4 666 5 5 21
8 38 7 23 0 30 -4 30 -20z m1816 -232 c4 -10 6 -22 5 -26 -1 -5 2 -6 7 -3 5 3
15 -6 22 -20 8 -14 20 -22 27 -20 8 3 18 -4 23 -17 5 -12 9 -17 9 -11 1 7 8
15 17 18 8 3 12 2 9 -4 -3 -6 -1 -10 5 -10 6 0 9 -4 6 -9 -7 -10 -77 -4 -89 8
-9 9 -102 -9 -125 -23 -7 -4 -12 -2 -12 5 0 8 -5 6 -13 -5 -11 -15 -28 -22
-60 -25 -5 -1 -5 -5 -2 -11 3 -5 2 -10 -4 -10 -28 0 -111 -110 -111 -146 0 -9
-4 -12 -10 -9 -9 6 -13 -28 -15 -130 0 -44 32 -135 58 -166 9 -10 17 -27 18
-37 0 -11 2 -12 6 -4 4 10 8 10 19 1 17 -14 18 -29 3 -29 -5 0 -7 5 -4 10 3 6
1 10 -5 10 -7 0 -10 -6 -7 -12 2 -7 13 -13 25 -13 12 0 29 -7 40 -16 10 -8 24
-13 31 -11 8 3 11 0 7 -7 -4 -6 0 -12 8 -12 16 -1 28 -4 44 -9 4 -1 10 -2 15
-1 4 0 7 -4 7 -10 0 -5 6 -7 13 -3 7 4 8 3 4 -2 -12 -12 -76 -12 -69 1 3 6
-10 -3 -28 -20 -18 -16 -29 -24 -25 -16 5 9 4 12 -3 7 -7 -4 -12 -13 -12 -21
0 -8 -7 -11 -20 -8 -11 3 -20 10 -20 15 0 5 -4 7 -9 4 -15 -9 2 49 18 62 14
12 14 13 -2 8 -11 -3 -16 -2 -12 4 4 6 0 17 -7 25 -31 34 -38 45 -31 45 9 1
-23 20 -34 21 -5 1 -15 5 -24 10 -9 4 -19 5 -23 2 -19 -19 -45 -11 -55 17 -9
28 -7 34 12 31 4 0 6 5 5 11 -2 7 3 12 10 10 8 -1 11 2 8 7 -3 5 0 14 7 20 11
8 14 48 8 81 -2 10 -61 73 -61 65 0 -4 -6 -2 -14 4 -11 9 -12 19 -5 39 7 22
15 27 42 27 19 0 37 6 45 17 7 10 18 16 23 12 5 -3 9 -2 8 3 -1 4 -1 15 0 23
1 13 2 13 12 0 9 -12 10 -11 6 7 -3 13 -1 26 4 29 13 8 7 56 -8 72 -15 15 -18
56 -4 48 5 -3 12 1 15 10 6 15 9 15 28 -2 14 -13 19 -14 14 -4 -5 9 -2 8 7 -2
8 -10 17 -15 20 -11 4 3 7 1 7 -4 0 -6 8 -10 18 -8 9 1 23 -2 30 -8 9 -7 11
-6 6 7 -5 12 2 19 24 27 31 10 40 24 48 68 3 14 7 28 10 33 9 15 52 8 60 -9z
m1550 -25 c4 -7 3 -8 -4 -4 -7 4 -12 3 -12 -2 0 -5 -7 -9 -16 -9 -14 0 -14 2
2 14 22 16 21 16 30 1z m-1309 -67 c-3 -26 -1 -54 3 -61 4 -7 6 -19 3 -27 -4
-11 -9 -10 -19 5 -7 11 -25 23 -39 26 -14 4 -23 11 -20 17 4 5 3 9 -2 8 -22
-4 -30 3 -30 26 0 14 2 24 4 21 3 -3 19 8 36 24 25 23 35 27 50 18 16 -8 18
-18 14 -57z m303 19 c0 -5 -5 -10 -11 -10 -5 0 -7 5 -4 10 3 6 8 10 11 10 2 0
4 -4 4 -10z m-442 -64 c42 -15 122 -64 122 -75 -1 -3 -31 -27 -68 -52 -66 -45
-68 -45 -101 -32 -99 41 -202 -56 -171 -161 15 -51 43 -82 87 -97 66 -21 142
12 168 75 10 24 28 36 88 62 73 30 76 31 81 11 7 -28 -10 -110 -33 -155 -44
-86 -144 -150 -249 -159 -113 -10 -226 57 -279 165 -37 74 -39 182 -6 254 62
135 228 211 361 164z m372 -16 c0 -6 -7 -13 -15 -17 -14 -5 -14 -8 2 -25 17
-19 17 -21 -3 -56 -12 -20 -45 -57 -74 -80 -43 -36 -58 -43 -82 -38 -16 3 -28
1 -28 -5 0 -6 -4 -8 -10 -4 -5 3 -2 13 8 24 18 19 37 18 26 -1 -4 -7 -2 -8 5
-4 8 6 9 11 1 20 -8 10 5 20 52 43 35 17 71 33 81 37 14 5 16 9 7 26 -20 38
-75 16 -138 -55 -22 -25 -43 -45 -47 -45 -4 0 -34 -12 -67 -27 -47 -21 -56
-28 -43 -35 10 -6 21 -6 28 0 7 5 26 12 42 16 29 7 29 6 9 -8 -11 -8 -33 -18
-47 -22 -15 -3 -31 -13 -36 -22 -8 -14 -11 -14 -26 -2 -14 11 -18 11 -33 -5
-11 -11 -12 -15 -3 -10 11 6 13 4 8 -9 -4 -11 -3 -15 4 -11 6 4 8 13 5 21 -3
8 -1 14 4 14 18 0 17 -16 -1 -50 -11 -19 -19 -30 -19 -25 0 6 -4 4 -9 -4 -11
-17 -101 -25 -101 -9 0 5 -6 8 -14 5 -8 -3 -22 10 -35 34 -45 80 -2 164 83
164 25 0 43 -3 40 -6 -2 -4 3 -10 12 -13 8 -3 12 -2 9 4 -3 6 1 7 9 4 9 -3 13
-10 10 -15 -3 -5 2 -6 10 -3 9 3 13 10 11 15 -3 5 6 11 20 15 13 3 22 10 19
15 -3 5 3 12 13 16 10 4 29 17 43 30 14 13 29 23 34 23 14 0 -47 -59 -62 -60
-7 0 -11 -3 -9 -7 5 -10 -30 -43 -37 -35 -3 3 -6 -4 -6 -16 0 -12 2 -22 5 -22
2 0 46 38 97 85 112 103 248 177 248 135z m-190 -52 c-12 -10 -29 -18 -38 -18
-12 0 -10 5 7 24 14 15 29 22 39 19 12 -5 11 -9 -8 -25z m110 -42 c0 -2 -8
-10 -17 -17 -16 -13 -17 -12 -4 4 13 16 21 21 21 13z m-24 -163 c4 -16 25 -46
47 -67 36 -35 38 -41 23 -52 -13 -9 -14 -13 -4 -16 7 -3 -5 -4 -27 -3 -26 0
-47 -5 -59 -17 -11 -10 -22 -16 -24 -13 -8 8 -10 55 -3 55 4 0 8 6 8 13 1 6 2
38 4 70 2 62 23 80 35 30z m-60 -211 c-16 -31 -16 -46 0 -77 6 -11 10 -24 9
-30 -3 -21 -18 -45 -27 -45 -5 0 -7 4 -4 9 3 4 -6 7 -19 5 -14 -1 -23 1 -20 5
2 5 -6 13 -18 18 -34 16 -112 -21 -129 -61 -7 -17 -13 -37 -15 -45 -2 -15 -25
-33 -32 -25 -2 2 4 11 15 20 16 12 13 12 -15 -1 -18 -9 -30 -12 -27 -6 4 6 -5
23 -19 38 -14 16 -24 37 -23 48 3 16 11 19 55 20 29 0 53 3 53 8 0 4 8 7 19 7
10 0 24 7 31 15 7 8 21 15 30 15 10 0 28 12 40 28 12 15 18 20 14 12 -7 -13
-5 -13 9 -1 9 7 17 20 17 28 0 8 3 12 8 10 4 -3 16 7 26 21 12 15 14 22 5 17
-12 -8 -12 -6 0 9 23 27 36 -5 17 -42z m200 -24 c0 -45 -4 -56 -35 -90 -20
-21 -41 -34 -46 -30 -6 4 -17 30 -26 57 -13 43 -14 53 -2 64 8 7 21 10 29 7
17 -7 74 20 74 34 0 6 1 10 3 10 2 0 3 -23 3 -52z m-1282 -110 c-6 -10 -5 -10
7 -1 12 10 19 10 35 0 10 -8 38 -19 61 -25 45 -13 66 -32 33 -29 -11 1 -20 4
-20 8 0 4 -10 7 -22 7 -24 0 -105 19 -120 28 -12 8 0 24 18 24 10 0 12 -5 8
-12z m186 -59 c0 -5 -4 -9 -8 -9 -5 0 -9 7 -9 15 0 8 4 12 9 9 4 -3 8 -9 8
-15z m-784 -1 c4 -5 12 -8 18 -8 6 0 4 5 -4 11 -12 8 -9 9 11 5 14 -3 59 -6
100 -7 41 -1 99 -5 129 -11 30 -5 75 -11 100 -13 88 -7 150 -18 150 -27 0 -5
-21 -6 -47 -4 -127 14 -210 17 -372 17 -97 -1 -198 -3 -226 -6 -27 -2 -75 -7
-105 -10 -30 -3 -79 -11 -107 -19 l-53 -14 0 36 c0 36 1 37 38 36 21 0 73 5
116 10 89 13 241 14 252 4z m3066 1 c15 1 29 -3 32 -8 3 -4 26 -7 51 -5 l45 4
0 -39 c0 -38 -1 -39 -27 -31 -16 4 -41 13 -56 19 -36 14 -46 14 -27 0 12 -9
11 -10 -5 -4 -11 4 -44 8 -73 9 -29 2 -54 5 -57 7 -2 3 -36 4 -74 3 -39 -1
-69 1 -67 5 8 12 -440 0 -475 -14 -8 -3 -26 -1 -40 5 -24 10 -24 10 4 5 15 -3
27 -1 27 4 0 5 33 12 73 16 39 4 81 9 92 12 11 2 76 6 145 10 69 3 127 7 129
9 3 3 66 1 140 -2 75 -3 148 -6 163 -5z m-2239 -20 l22 -21 -27 13 c-16 7 -28
16 -28 21 0 13 9 10 33 -13z m787 -17 c10 -12 21 -18 26 -14 5 4 2 -1 -5 -10
-7 -10 -16 -16 -20 -15 -4 1 -20 -13 -36 -31 -23 -28 -30 -31 -43 -20 -13 11
-14 11 -8 0 9 -16 -31 -56 -60 -60 -16 -2 -20 3 -20 23 0 21 6 27 28 32 32 6
68 46 68 74 0 10 5 21 10 24 6 4 8 10 6 14 -11 18 39 3 54 -17z m290 -1 c0 -5
-10 -11 -22 -14 -22 -6 -22 -6 -4 8 23 17 26 18 26 6z m293 -28 c-7 -2 -21 -2
-30 0 -10 3 -4 5 12 5 17 0 24 -2 18 -5z m617 -3 c102 -5 229 -14 283 -21 83
-11 97 -16 97 -32 0 -13 -5 -17 -17 -13 -120 33 -735 45 -938 18 -256 -34
-439 -77 -692 -160 -68 -22 -123 -38 -123 -36 0 11 79 54 91 49 8 -3 44 6 79
20 226 90 608 165 895 178 39 2 86 4 105 5 19 1 118 -3 220 -8z m-2173 -6 c-3
-3 -12 -4 -19 -1 -8 3 -5 6 6 6 11 1 17 -2 13 -5z"/>
<path d="M3290 2049 c0 -5 5 -7 10 -4 6 3 10 8 10 11 0 2 -4 4 -10 4 -5 0 -10
-5 -10 -11z"/>
<path d="M2699 2623 c-13 -16 -12 -17 4 -4 16 13 21 21 13 21 -2 0 -10 -8 -17
-17z"/>
<path d="M3155 2620 c-3 -6 1 -7 9 -4 18 7 21 14 7 14 -6 0 -13 -4 -16 -10z"/>
<path d="M3040 2860 c0 -5 -7 -7 -15 -4 -8 4 -15 4 -15 1 0 -13 30 -14 40 -1
9 10 9 14 1 14 -6 0 -11 -4 -11 -10z"/>
<path d="M3180 2780 c-9 -6 -10 -10 -3 -10 6 0 15 5 18 10 8 12 4 12 -15 0z"/>
<path d="M3230 2270 c-9 -6 -10 -10 -3 -10 6 0 15 5 18 10 8 12 4 12 -15 0z"/>
<path d="M2006 3709 c33 -37 124 -65 124 -39 0 6 -9 10 -20 10 -25 0 -100 32
-100 42 0 5 -5 8 -12 8 -6 0 -3 -10 8 -21z"/>
<path d="M2710 3721 c0 -13 41 -41 60 -41 11 1 10 4 -5 16 -34 26 -55 36 -55
25z"/>
<path d="M4138 3690 c-4 -19 -15 -98 -24 -175 -9 -77 -20 -148 -25 -157 -5 -9
-9 -25 -9 -36 0 -11 -7 -33 -15 -48 -8 -16 -15 -38 -15 -49 0 -11 -4 -26 -9
-34 -14 -22 -50 8 -41 34 5 14 -5 42 -31 91 -21 39 -41 87 -44 105 -9 46 -53
109 -93 131 -44 24 -38 6 8 -24 19 -13 37 -33 39 -43 2 -11 9 -23 16 -27 7 -5
16 -30 20 -57 4 -28 13 -52 21 -55 8 -3 14 -17 14 -31 0 -16 6 -25 16 -25 11
0 14 -6 9 -20 -4 -11 -2 -20 4 -20 27 0 4 -29 -59 -79 -38 -29 -68 -56 -67
-60 3 -9 -64 -71 -77 -71 -6 0 -5 -5 1 -11 8 -8 35 13 99 75 88 85 116 100
128 70 3 -8 11 -12 17 -8 8 4 9 3 5 -4 -4 -7 -3 -20 3 -29 7 -14 11 -9 21 27
6 25 15 56 20 70 22 61 39 142 50 230 6 52 16 111 22 130 5 19 8 58 6 85 -3
49 -4 49 -10 15z"/>
<path d="M4496 3702 c-2 -4 -1 -14 4 -22 7 -11 9 -9 7 8 -1 24 -3 26 -11 14z"/>
<path d="M2146 3681 c-8 -12 125 -71 158 -71 16 0 25 -4 21 -10 -10 -16 35
-27 95 -25 78 4 80 4 80 14 0 8 -84 6 -99 -3 -4 -3 -23 2 -42 12 -19 10 -54
23 -79 31 -25 7 -64 24 -87 37 -23 13 -45 20 -47 15z"/>
<path d="M3436 3658 c3 -4 -7 -10 -21 -14 -14 -3 -25 -13 -25 -23 0 -12 2 -13
9 -3 4 8 12 14 17 14 15 1 54 21 54 27 0 4 -9 7 -19 7 -11 0 -17 -4 -15 -8z"/>
<path d="M2960 3630 c-9 -6 -10 -10 -3 -10 6 0 15 5 18 10 8 12 4 12 -15 0z"/>
<path d="M4353 3612 c-6 -10 -9 -30 -6 -45 4 -20 1 -27 -10 -27 -18 0 -59
-121 -63 -185 -6 -92 -39 -134 -155 -198 -27 -15 -30 -20 -18 -29 11 -8 10 -9
-5 -4 -11 4 -22 3 -25 -1 -3 -5 -28 -22 -54 -39 -55 -36 -190 -164 -181 -173
3 -3 16 6 29 21 23 26 23 26 41 7 9 -10 13 -19 9 -19 -4 0 0 -9 10 -20 12 -13
16 -28 12 -48 -5 -24 1 -36 28 -67 l35 -37 -11 31 c-6 17 -17 31 -24 31 -21 0
-27 17 -13 39 10 16 7 27 -18 67 l-29 48 40 37 c23 21 72 54 110 74 39 21 72
41 75 45 3 4 33 19 67 33 61 25 156 77 140 77 -8 0 -64 -24 -143 -61 -58 -27
-67 -23 -14 7 53 30 76 54 91 91 11 28 13 40 23 121 3 23 10 51 16 62 6 11 8
20 4 20 -3 0 -1 6 5 13 6 8 8 17 4 20 -3 4 2 9 11 13 9 4 24 20 32 36 10 19
11 27 4 23 -9 -6 -10 1 -5 24 8 35 5 39 -12 13z"/>
<path d="M1844 3611 c7 -11 -17 -21 -49 -21 -32 0 -52 -25 -35 -45 7 -8 21
-15 31 -15 10 0 28 -4 41 -9 52 -21 137 -43 154 -39 21 4 -38 25 -153 54 -40
10 -73 21 -73 25 0 11 41 19 95 19 l50 0 -25 20 c-26 20 -45 26 -36 11z"/>
<path d="M1520 3600 c-23 -14 21 -28 59 -18 18 5 31 12 27 15 -9 9 -72 12 -86
3z"/>
<path d="M3271 3569 l-42 -32 40 -40 c23 -22 43 -38 46 -35 9 9 -6 38 -20 38
-6 0 -20 10 -31 23 -10 12 -15 19 -11 16 4 -4 21 6 38 22 18 17 37 26 47 23
14 -5 15 -4 2 5 -21 15 -21 15 -69 -20z"/>
<path d="M2505 3560 c-3 -5 -2 -10 4 -10 5 0 13 5 16 10 3 6 2 10 -4 10 -5 0
-13 -4 -16 -10z"/>
<path d="M3760 3559 c0 -6 -7 -8 -16 -5 -21 8 -44 -11 -44 -36 0 -10 -7 -21
-15 -24 -10 -4 -15 -20 -15 -49 0 -24 -4 -55 -10 -69 -5 -15 -5 -28 0 -31 15
-9 20 11 21 74 1 43 5 61 14 61 15 0 28 27 19 41 -10 17 6 30 26 19 15 -8 21
-6 30 10 7 13 7 20 0 20 -5 0 -10 -5 -10 -11z"/>
<path d="M1912 3551 c-11 -7 -11 -9 0 -14 9 -3 15 1 15 9 0 8 -1 14 -1 14 -1
0 -7 -4 -14 -9z"/>
<path d="M4494 3549 c-13 -21 -16 -106 -5 -146 6 -21 7 -43 1 -52 -10 -19 3
-50 14 -33 3 6 2 12 -3 14 -5 1 -3 8 4 15 10 10 14 5 20 -24 5 -31 9 -34 31
-30 13 2 32 -2 41 -9 16 -12 16 -15 3 -23 -9 -7 -19 -6 -27 1 -10 8 -12 7 -7
-6 3 -9 12 -16 20 -16 8 0 11 -7 8 -17 -5 -17 -5 -17 6 0 6 9 18 17 26 17 11
0 13 8 9 32 -7 39 -19 48 -63 48 l-34 0 7 41 c6 33 4 40 -6 36 -8 -2 -13 -11
-11 -18 3 -11 1 -12 -9 -2 -10 11 -9 16 7 28 16 12 16 14 3 15 -12 0 -18 11
-21 35 -5 43 -2 46 28 35 18 -7 24 -6 24 4 0 8 -6 17 -12 19 -10 4 -10 6 0 6
8 1 16 -8 19 -19 3 -11 12 -20 20 -20 19 0 -14 45 -43 59 -19 8 -21 7 -17 -10
4 -14 0 -19 -13 -19 -12 0 -15 3 -8 8 6 4 8 16 4 26 -5 16 -8 17 -16 5z"/>
<path d="M3142 3482 l-52 -47 0 -102 c0 -56 5 -113 11 -127 18 -39 57 -38 101
2 l37 35 53 -30 53 -31 0 -56 c1 -68 21 -98 49 -71 9 9 16 14 16 11 0 -3 8 2
18 12 11 9 56 43 100 75 45 32 82 62 82 68 0 11 -35 -5 -45 -21 -10 -16 -25
-12 -19 5 4 8 1 15 -5 15 -7 0 1 11 16 25 l28 25 -33 -11 c-30 -10 -33 -15
-29 -38 3 -15 3 -31 -1 -37 -9 -12 -140 -114 -147 -114 -3 0 -3 22 1 49 5 37
2 54 -11 75 -10 15 -24 25 -31 22 -19 -7 -18 4 2 18 13 10 13 12 -5 12 -11 0
-17 -4 -15 -8 8 -12 -11 -9 -24 4 -7 7 -12 18 -12 26 0 12 3 12 15 2 8 -7 15
-9 15 -6 0 9 -31 70 -39 76 -3 3 -19 24 -34 48 -39 60 -53 53 -15 -8 17 -27
36 -50 41 -50 6 0 7 -3 4 -7 -4 -3 -2 -12 3 -18 13 -16 1 -48 -16 -41 -12 5
-60 -26 -76 -49 -4 -5 -8 -6 -8 -1 0 5 -8 2 -17 -5 -14 -12 -16 -12 -8 0 6 11
4 13 -7 9 -12 -5 -15 5 -18 50 -2 32 -3 72 -3 89 0 18 -4 30 -9 27 -18 -11 17
40 53 78 l36 38 22 -31 23 -31 -24 12 c-12 6 0 -9 27 -34 80 -72 83 -62 10 30
-22 28 -44 58 -50 67 -9 14 -17 9 -63 -31z"/>
<path d="M3370 3515 c0 -10 30 -65 35 -65 14 0 2 47 -15 58 -11 7 -20 10 -20
7z"/>
<path d="M3330 3501 c0 -11 39 -59 40 -49 0 14 -23 58 -32 58 -4 0 -8 -4 -8
-9z"/>
<path d="M1878 3405 c3 -70 1 -86 -12 -91 -13 -5 -13 -8 -1 -20 7 -8 17 -14
22 -14 11 0 8 203 -3 207 -5 2 -8 -35 -6 -82z"/>
<path d="M3431 3467 c-1 -10 7 -34 18 -55 10 -20 24 -55 31 -77 7 -22 17 -45
21 -51 10 -13 59 -6 59 7 0 5 -11 7 -25 3 -16 -4 -25 -2 -25 5 0 7 -9 33 -20
59 -41 94 -59 127 -59 109z"/>
<path d="M4581 3454 c0 -11 3 -14 6 -6 3 7 2 16 -1 19 -3 4 -6 -2 -5 -13z"/>
<path d="M2275 3420 c-10 -16 13 -30 50 -30 37 -1 62 -14 114 -63 26 -24 41
-47 41 -62 0 -19 -4 -23 -17 -19 -10 4 -4 -5 12 -19 28 -23 51 -19 27 5 -6 6
-8 23 -5 39 4 21 0 32 -17 46 -13 10 -37 30 -54 44 -42 35 -70 49 -98 49 -13
0 -29 5 -35 11 -8 8 -13 7 -18 -1z"/>
<path d="M3060 3401 c0 -5 5 -13 10 -16 6 -3 10 -2 10 4 0 5 -4 13 -10 16 -5
3 -10 2 -10 -4z"/>
<path d="M4592 3394 c10 -10 20 -16 22 -13 3 3 -5 11 -17 18 -21 13 -21 12 -5
-5z"/>
<path d="M1446 3383 c-6 -14 -5 -15 5 -6 7 7 10 15 7 18 -3 3 -9 -2 -12 -12z"/>
<path d="M1631 3374 c0 -11 3 -14 6 -6 3 7 2 16 -1 19 -3 4 -6 -2 -5 -13z"/>
<path d="M1629 3334 c-1 -10 -2 -27 -2 -36 0 -20 -41 -26 -52 -8 -3 6 -14 10
-23 9 -14 0 -14 -2 -2 -6 8 -3 19 -12 23 -19 4 -8 19 -14 33 -14 23 0 25 -3
19 -30 -4 -16 -2 -30 3 -30 13 0 33 50 25 63 -4 6 -8 27 -10 46 -4 40 -12 54
-14 25z"/>
<path d="M1830 3286 c0 -10 42 -61 53 -64 4 -1 13 -6 20 -12 52 -42 71 -59 65
-60 -4 0 -13 6 -20 13 -17 16 -128 61 -134 54 -3 -3 37 -26 88 -51 51 -25 107
-55 123 -66 36 -24 42 -25 42 -5 0 8 -6 15 -14 15 -7 0 -16 7 -20 16 -3 8 -12
13 -19 10 -7 -3 -16 0 -20 6 -5 7 -2 8 7 3 24 -14 -24 29 -61 54 -19 13 -52
40 -72 60 -21 19 -38 31 -38 27z"/>
<path d="M1590 3231 c0 -7 -4 -9 -10 -6 -5 3 -10 2 -10 -3 0 -5 -13 -12 -30
-15 -16 -4 -30 -11 -30 -17 0 -7 8 -9 20 -5 10 3 28 2 38 -4 16 -8 21 -6 31
16 8 18 9 29 1 37 -7 7 -10 6 -10 -3z"/>
<path d="M3797 3234 c-9 -9 0 -45 23 -89 17 -34 18 -34 22 -10 3 14 2 25 -3
25 -4 0 -13 18 -21 41 -7 22 -17 37 -21 33z"/>
<path d="M1402 3185 c0 -16 2 -22 5 -12 2 9 2 23 0 30 -3 6 -5 -1 -5 -18z"/>
<path d="M1805 3180 c11 -13 29 -33 41 -44 11 -12 23 -29 27 -38 3 -10 14 -18
23 -18 14 0 15 2 3 17 -23 29 -73 78 -94 93 l-20 15 20 -25z"/>
<path d="M2870 3190 c-9 -6 -10 -10 -3 -10 6 0 15 5 18 10 8 12 4 12 -15 0z"/>
<path d="M4310 3181 c-67 -36 -84 -64 -88 -146 -3 -42 1 -81 7 -92 8 -14 10 2
8 69 l-2 88 40 32 c93 78 95 80 35 49z"/>
<path d="M4540 3190 c0 -5 5 -10 10 -10 6 0 10 5 10 10 0 6 -4 10 -10 10 -5 0
-10 -4 -10 -10z"/>
<path d="M3770 3156 c0 -7 6 -19 14 -25 11 -9 12 -6 8 14 -5 26 -22 35 -22 11z"/>
<path d="M2046 3136 c3 -8 12 -17 20 -20 9 -3 12 -10 9 -16 -3 -5 0 -10 7 -10
10 0 10 -2 -1 -9 -10 -6 1 -19 43 -50 30 -23 64 -51 75 -63 19 -20 21 -20 46
-4 17 11 38 15 63 12 57 -7 132 -27 132 -36 0 -14 31 -20 48 -10 14 9 13 10
-5 5 -16 -4 -23 -1 -28 15 -3 11 -14 20 -23 20 -9 0 -51 9 -92 20 -74 19 -75
19 -92 -1 -20 -24 -30 -24 -26 -1 4 24 -19 52 -42 52 -9 0 -25 9 -35 20 -10
12 -25 18 -32 15 -8 -2 -12 -1 -9 3 7 12 -20 49 -44 62 -16 8 -18 8 -14 -4z
m149 -127 c11 -17 2 -18 -19 -3 -17 12 -17 14 -4 14 9 0 20 -5 23 -11z"/>
<path d="M1538 3123 c7 -3 16 -2 19 1 4 3 -2 6 -13 5 -11 0 -14 -3 -6 -6z"/>
<path d="M1864 3062 c16 -18 18 -31 12 -79 -4 -40 -3 -53 4 -43 5 8 10 27 10
42 0 15 5 30 10 33 14 9 -5 42 -33 56 -22 12 -22 12 -3 -9z"/>
<path d="M3568 3050 c5 -36 8 -37 23 -9 9 17 8 23 -2 30 -22 14 -26 11 -21
-21z"/>
<path d="M3835 3034 c-14 -13 -22 -24 -16 -24 5 0 13 5 16 10 3 6 11 10 17 10
6 0 4 -8 -5 -18 -10 -10 -14 -21 -11 -25 3 -3 -7 -14 -23 -24 -16 -10 -28 -23
-26 -29 2 -7 -26 -26 -63 -43 -37 -17 -65 -33 -63 -35 2 -2 26 1 52 8 26 7 44
15 41 19 -4 4 -2 7 5 7 17 0 51 35 94 98 42 60 42 58 23 65 -8 3 -26 -5 -41
-19z"/>
<path d="M4553 3019 c-1 -10 2 -19 8 -19 11 0 12 27 1 34 -4 2 -9 -4 -9 -15z"/>
<path d="M1528 3013 c7 -3 16 -2 19 1 4 3 -2 6 -13 5 -11 0 -14 -3 -6 -6z"/>
<path d="M1575 3010 c3 -6 -1 -10 -11 -10 -13 0 -14 -3 -4 -15 14 -17 35 -21
25 -5 -3 6 -1 10 4 10 17 0 13 17 -5 24 -8 3 -12 2 -9 -4z"/>
<path d="M3761 3010 c-2 -8 -4 -25 -7 -38 -4 -22 -4 -22 29 -6 43 22 47 27 15
19 -22 -6 -27 -3 -31 17 -2 12 -5 16 -6 8z"/>
<path d="M2094 2976 c-3 -14 -2 -31 2 -38 4 -7 16 -64 25 -128 11 -75 17 -99
18 -70 0 25 -6 85 -14 134 -8 49 -13 91 -12 93 2 1 18 -11 35 -27 18 -16 56
-41 84 -55 47 -24 50 -24 34 -6 -11 12 -23 21 -29 21 -5 0 -38 23 -73 51 l-63
50 -7 -25z"/>
<path d="M4182 2966 c-6 -22 -9 -43 -6 -48 3 -4 -2 -15 -10 -24 -10 -10 -16
-33 -16 -66 0 -61 9 -59 16 3 3 24 13 55 23 69 14 20 17 35 12 65 l-7 40 -12
-39z"/>
<path d="M4597 2993 c-4 -3 -7 -13 -7 -21 0 -18 13 -7 16 13 2 17 1 18 -9 8z"/>
<path d="M1554 2948 c-4 -7 -3 -8 4 -4 7 4 12 3 12 -2 0 -6 -7 -12 -15 -16
-21 -8 -19 -36 3 -36 10 0 13 -3 6 -8 -19 -13 -24 -40 -8 -46 48 -18 71 6 38
39 -15 15 -15 17 2 30 18 13 18 14 -3 34 -26 24 -29 25 -39 9z"/>
<path d="M4611 2944 c0 -11 3 -14 6 -6 3 7 2 16 -1 19 -3 4 -6 -2 -5 -13z"/>
<path d="M2231 2943 c0 -11 59 -56 59 -46 -1 13 -37 53 -49 53 -6 0 -11 -3
-10 -7z"/>
<path d="M3708 2943 c7 -3 16 -2 19 1 4 3 -2 6 -13 5 -11 0 -14 -3 -6 -6z"/>
<path d="M3740 2930 c0 -5 7 -7 15 -4 8 4 15 8 15 10 0 2 -7 4 -15 4 -8 0 -15
-4 -15 -10z"/>
<path d="M1895 2924 c-11 -4 -5 -188 6 -199 4 -3 7 41 8 99 1 59 0 106 -1 105
-2 0 -7 -2 -13 -5z"/>
<path d="M4588 2913 c7 -3 16 -2 19 1 4 3 -2 6 -13 5 -11 0 -14 -3 -6 -6z"/>
<path d="M3775 2870 c-4 -6 1 -10 9 -10 9 0 16 -4 16 -9 0 -5 7 -11 15 -15 12
-4 13 -2 3 14 -15 24 -35 33 -43 20z"/>
<path d="M3726 2829 c-3 -17 -6 -43 -6 -58 0 -14 -9 -44 -19 -66 -11 -22 -22
-48 -26 -59 -4 -13 -11 -17 -29 -12 -22 5 -25 2 -36 -47 -6 -28 -14 -61 -17
-72 -11 -42 13 -1 28 48 9 29 18 50 21 47 19 -19 89 105 94 165 2 22 6 50 9
63 3 12 1 22 -4 22 -4 0 -11 -14 -15 -31z"/>
<path d="M4121 2844 c0 -11 3 -14 6 -6 3 7 2 16 -1 19 -3 4 -6 -2 -5 -13z"/>
<path d="M3769 2833 c6 -13 19 -23 28 -23 9 0 14 1 12 3 -2 1 -15 11 -28 22
l-24 20 12 -22z"/>
<path d="M1590 2800 c0 -5 7 -7 15 -4 8 4 15 8 15 10 0 2 -7 4 -15 4 -8 0 -15
-4 -15 -10z"/>
<path d="M2080 2770 c-4 -26 1 -42 16 -57 11 -11 14 -12 14 -1 -1 22 -28 74
-30 58z"/>
<path d="M3759 2508 c-11 -21 -8 -22 26 -6 30 14 32 24 4 24 -11 0 -25 -8 -30
-18z"/>
<path d="M3701 2496 c-13 -7 -19 -16 -14 -19 11 -7 51 18 43 26 -3 3 -16 0
-29 -7z"/>
<path d="M4268 2493 c7 -3 16 -2 19 1 4 3 -2 6 -13 5 -11 0 -14 -3 -6 -6z"/>
<path d="M4098 2473 c7 -3 16 -2 19 1 4 3 -2 6 -13 5 -11 0 -14 -3 -6 -6z"/>
<path d="M3745 1791 c-3 -5 -2 -12 3 -15 5 -3 9 1 9 9 0 17 -3 19 -12 6z"/>
<path d="M4040 1796 c0 -2 7 -7 16 -10 8 -3 12 -2 9 4 -6 10 -25 14 -25 6z"/>
<path d="M1234 1775 c-18 -12 -22 -28 -27 -97 -3 -48 -16 -119 -32 -168 -33
-103 -105 -252 -119 -247 -19 6 -47 98 -72 232 -24 126 -40 161 -68 152 -6 -2
-37 -56 -71 -120 -33 -65 -85 -152 -115 -195 l-54 -77 -18 95 c-10 52 -24 154
-32 227 -18 157 -24 173 -71 173 -58 0 -57 7 -19 -263 27 -191 57 -324 77
-344 12 -12 30 -16 59 -14 18 1 120 141 187 256 l40 67 10 -43 c6 -24 26 -89
44 -144 26 -82 37 -103 60 -115 24 -13 30 -13 55 0 40 23 116 141 165 260 55
131 78 215 80 292 2 49 -2 62 -17 74 -25 18 -36 18 -62 -1z m51 -75 c0 -30 -6
-75 -13 -100 -24 -86 -36 -125 -49 -150 -7 -14 -13 -31 -13 -37 0 -7 -4 -13
-10 -13 -5 0 -9 -3 -8 -7 2 -14 -45 -113 -54 -113 -5 0 -6 -5 -2 -12 5 -7 0
-9 -14 -6 -13 4 -26 0 -34 -11 -10 -13 -10 -14 1 -4 19 16 44 6 28 -12 -7 -7
-15 -11 -19 -8 -5 2 -8 -1 -8 -8 0 -8 -5 -8 -17 2 -15 11 -16 11 -5 -1 18 -21
15 -28 -17 -45 l-29 -15 -22 45 c-12 24 -19 49 -15 55 3 5 1 10 -4 10 -6 0
-11 14 -11 30 0 17 -5 30 -11 30 -5 0 -8 4 -5 9 4 5 1 22 -6 38 -6 15 -10 33
-10 39 1 5 -7 20 -17 31 -11 11 -18 23 -16 25 2 2 -5 4 -15 5 -11 1 -22 -2
-25 -8 -3 -5 2 -6 12 -3 17 5 17 5 1 -9 -10 -8 -18 -19 -18 -26 0 -6 -4 -11
-9 -11 -5 0 -15 -16 -21 -36 -7 -19 -18 -38 -26 -41 -8 -3 -12 -9 -9 -13 3 -4
-2 -11 -11 -14 -8 -3 -12 -10 -9 -16 4 -6 -1 -7 -12 -3 -16 6 -16 5 -4 -10 7
-9 9 -17 3 -17 -5 0 -15 7 -22 15 -9 10 -9 15 -1 15 6 0 11 6 11 14 0 7 7 19
15 26 8 7 12 17 8 24 -4 6 1 5 10 -3 10 -8 20 -11 24 -7 3 3 1 6 -5 6 -7 0
-12 5 -12 11 0 6 7 8 18 4 13 -5 14 -3 5 6 -14 14 4 62 20 52 6 -4 8 0 4 10
-3 9 -3 17 1 19 13 6 62 105 55 112 -3 3 -1 6 5 6 7 0 12 6 12 14 0 8 4 18 10
21 6 3 7 -1 4 -9 -3 -9 -2 -16 4 -16 5 0 13 -7 16 -16 4 -10 2 -13 -7 -8 -7 5
-7 1 2 -9 8 -10 15 -33 16 -51 1 -18 5 -39 9 -45 4 -6 8 -37 8 -69 0 -42 2
-52 9 -37 7 15 8 12 4 -13 -3 -23 -1 -31 7 -26 8 5 9 2 5 -10 -4 -10 -3 -15 3
-11 10 6 33 -31 26 -43 -2 -4 6 -9 19 -10 15 -1 31 7 43 23 11 13 22 21 26 17
4 -3 4 1 0 11 -3 10 -1 17 5 17 7 0 14 6 16 13 2 6 10 26 16 42 7 17 12 33 11
38 -1 4 3 7 9 7 6 0 9 9 6 20 -3 11 -1 18 4 14 5 -3 10 4 10 15 1 12 2 24 4
29 13 50 18 62 24 62 4 0 7 8 8 18 0 9 4 51 8 92 3 41 7 81 7 87 1 7 11 12 23
11 19 -2 21 -8 20 -58z m-696 -72 c6 -51 16 -115 20 -143 5 -27 9 -59 9 -70 0
-11 7 -45 15 -75 8 -30 14 -57 12 -59 -4 -3 44 -51 51 -51 2 0 1 6 -2 14 -7
18 34 42 48 28 7 -7 -2 -27 -24 -60 -30 -45 -35 -49 -46 -34 -10 14 -11 13 -7
-11 4 -28 3 -28 -18 -14 -12 8 -21 22 -21 31 1 9 -3 13 -9 9 -6 -4 -8 0 -4 10
3 10 3 17 -1 17 -4 0 -9 8 -10 18 -5 46 -30 208 -32 212 -2 3 -4 10 -5 15 -1
6 -5 26 -9 45 -4 19 -9 60 -11 90 -1 30 -6 70 -10 88 -7 29 -5 32 17 32 24 0
26 -4 37 -92z"/>
<path d="M930 1460 c6 -11 13 -20 16 -20 2 0 0 9 -6 20 -6 11 -13 20 -16 20
-2 0 0 -9 6 -20z"/>
<path d="M1196 1443 c-6 -14 -5 -15 5 -6 7 7 10 15 7 18 -3 3 -9 -2 -12 -12z"/>
<path d="M622 1250 c0 -14 2 -19 5 -12 2 6 2 18 0 25 -3 6 -5 1 -5 -13z"/>
<path d="M685 1200 c-3 -5 -1 -10 4 -10 6 0 11 5 11 10 0 6 -2 10 -4 10 -3 0
-8 -4 -11 -10z"/>
<path d="M1601 1733 c-126 -75 -229 -217 -252 -350 -20 -116 33 -222 127 -253
142 -47 363 80 447 257 28 59 32 79 32 148 0 95 -18 134 -82 179 -32 22 -58
31 -110 36 -37 4 -75 10 -83 14 -9 4 -41 -9 -79 -31z m93 0 c4 -5 22 -9 39
-10 29 -2 80 -8 100 -11 5 -1 5 -6 2 -12 -3 -6 1 -7 9 -4 9 4 18 -1 22 -10 3
-9 11 -13 18 -9 6 4 5 -1 -3 -10 -12 -15 -12 -17 1 -12 22 9 40 -20 44 -65 1
-22 5 -43 8 -48 7 -12 -22 -123 -35 -136 -6 -6 -9 -5 -9 4 0 7 -3 10 -6 7 -4
-4 -2 -13 4 -20 9 -10 3 -26 -26 -68 -49 -71 -63 -82 -79 -60 -12 15 -13 14
-7 -2 8 -22 -13 -48 -32 -40 -10 4 -12 0 -8 -12 6 -15 4 -16 -14 -6 -26 14
-43 14 -19 0 18 -11 14 -29 -6 -29 -7 0 -6 4 3 10 8 5 10 10 4 10 -6 0 -19 -9
-29 -20 -10 -12 -25 -18 -32 -16 -7 3 -15 1 -18 -4 -3 -5 -13 -9 -23 -8 -9 0
-40 -1 -67 -2 -40 -2 -58 3 -88 23 -23 15 -32 27 -25 30 8 4 7 6 -4 6 -20 1
-48 79 -48 135 0 23 7 54 15 70 9 16 16 40 17 52 1 13 8 26 15 28 7 3 13 12
13 19 0 8 7 20 15 27 8 6 13 17 12 23 -1 7 4 11 10 10 7 -2 12 3 10 10 -1 6 3
11 10 10 7 -2 10 4 7 12 -7 18 7 20 26 3 12 -11 12 -10 1 4 -14 19 -7 38 15
38 8 0 12 5 9 10 -3 6 2 13 12 17 10 3 31 16 48 27 16 11 36 21 43 22 8 2 16
5 20 8 7 8 17 7 26 -1z"/>
<path d="M1728 1703 c7 -3 16 -2 19 1 4 3 -2 6 -13 5 -11 0 -14 -3 -6 -6z"/>
<path d="M1644 1688 c-3 -5 -13 -7 -21 -4 -11 5 -13 2 -9 -9 3 -9 2 -13 -4
-10 -6 3 -10 0 -10 -7 0 -9 -3 -9 -10 2 -9 15 -11 14 -14 -12 -1 -7 -8 -12
-15 -10 -9 2 -11 -3 -7 -15 6 -15 4 -14 -15 3 -22 19 -22 19 -9 -2 12 -19 10
-24 -10 -45 -13 -13 -19 -17 -15 -9 5 9 4 12 -1 7 -5 -5 -10 -12 -10 -15 -1
-4 -5 -18 -10 -31 -7 -23 -8 -24 -15 -5 -7 17 -8 16 -10 -6 -4 -41 -4 -44 -13
-59 -31 -50 -16 -227 20 -234 5 -1 8 -6 6 -10 -1 -5 2 -6 7 -3 5 3 14 -1 21
-9 11 -13 10 -18 -6 -31 -17 -13 -16 -13 12 0 20 10 52 14 83 12 30 -1 46 1
39 5 -10 7 -10 9 2 9 20 1 92 35 86 41 -3 3 4 11 16 18 11 7 18 8 14 3 -3 -5
1 -9 9 -9 8 0 12 4 9 8 -3 5 0 18 6 29 8 15 17 19 33 15 16 -5 18 -4 8 3 -15
11 -6 36 10 27 5 -3 6 2 2 11 -5 13 -3 15 7 9 9 -6 11 -4 6 4 -5 7 -1 20 7 29
8 9 19 49 25 87 8 60 7 77 -9 116 -11 30 -14 50 -8 58 6 7 5 8 -2 2 -15 -12
-41 -2 -32 13 3 6 2 8 -2 3 -5 -4 -16 0 -26 9 -20 18 -135 28 -145 12z m133
-35 c26 -12 41 -29 56 -61 37 -85 3 -197 -88 -288 -117 -117 -236 -125 -281
-18 -40 96 23 252 138 344 42 33 58 40 95 40 25 0 61 -8 80 -17z"/>
<path d="M1763 1575 c0 -8 4 -12 9 -9 5 3 6 10 3 15 -9 13 -12 11 -12 -6z"/>
<path d="M1780 1297 c0 -2 6 -10 14 -16 11 -9 16 -9 22 1 4 7 4 10 -1 6 -4 -4
-14 -3 -22 3 -7 6 -13 9 -13 6z"/>
<path d="M1475 1190 c-3 -6 1 -7 9 -4 18 7 21 14 7 14 -6 0 -13 -4 -16 -10z"/>
<path d="M2762 1762 c-7 -5 -17 -37 -23 -73 -17 -108 -49 -278 -75 -401 -28
-132 -24 -158 24 -158 45 0 68 23 71 72 4 87 25 160 47 168 17 7 34 -7 103
-86 117 -133 175 -158 262 -114 43 22 62 55 48 82 -8 15 -12 16 -45 2 -58 -24
-90 -11 -171 73 -40 41 -73 79 -73 85 0 5 -7 8 -14 5 -32 -12 -3 22 48 57 29
20 89 74 134 120 68 69 82 89 82 115 0 35 -17 47 -53 37 -12 -3 -51 -40 -87
-82 -35 -42 -104 -108 -153 -147 -52 -41 -86 -75 -83 -83 3 -7 -7 -23 -22 -34
-15 -12 -21 -19 -14 -15 18 9 15 -6 -5 -20 -9 -7 -17 -25 -18 -41 -7 -96 -17
-140 -37 -157 -34 -28 -42 0 -22 75 9 35 18 83 20 107 3 24 7 48 10 53 6 10
29 133 45 250 11 75 23 94 48 79 13 -9 6 -67 -26 -208 -16 -69 -13 -98 6 -77
7 7 61 262 61 287 0 3 -7 13 -16 21 -17 17 -51 21 -72 8z m388 -57 c-6 -8 -9
-19 -6 -24 4 -5 1 -13 -5 -17 -8 -5 -9 -3 -4 6 5 9 4 11 -3 6 -7 -4 -12 -12
-12 -18 0 -6 -8 -17 -17 -24 -10 -7 -18 -18 -18 -26 0 -7 -7 -13 -15 -13 -8
-1 -14 -7 -12 -15 2 -10 0 -11 -11 -2 -8 7 -17 9 -20 5 -16 -16 -5 16 13 38
11 13 33 40 49 59 16 20 39 36 51 37 17 2 19 -1 10 -12z m-121 -147 c-11 -20
-34 -24 -44 -8 -10 16 4 30 30 28 19 -2 22 -5 14 -20z m-59 -48 c-14 -11 -31
-18 -38 -15 -7 3 -11 1 -8 -4 3 -4 -3 -16 -14 -26 -11 -10 -20 -24 -20 -31 0
-21 36 -75 44 -66 4 4 6 2 4 -4 -4 -14 47 -74 63 -74 5 0 7 -4 4 -10 -3 -5 1
-10 9 -10 10 0 13 -6 9 -17 -4 -11 -3 -14 5 -9 7 4 22 0 34 -8 26 -18 90 -21
119 -6 25 14 24 9 -7 -26 -15 -16 -23 -23 -20 -16 8 14 5 15 -18 6 -9 -3 -14
-9 -12 -13 8 -12 -34 -10 -67 4 -30 13 -88 58 -87 70 0 3 -3 6 -7 6 -15 3 -33
38 -27 52 3 8 1 18 -5 22 -7 3 -8 0 -5 -9 3 -9 3 -16 0 -16 -8 0 -66 61 -66
70 0 4 -11 12 -24 18 -17 8 -27 7 -37 -1 -7 -7 -6 -3 4 9 9 11 14 24 10 28 -4
4 1 4 11 0 13 -5 17 -4 13 3 -6 10 26 27 45 24 4 0 4 7 1 16 -5 13 -2 15 12 9
11 -4 16 -4 13 0 -4 4 9 20 29 36 26 20 40 25 47 18 8 -8 4 -17 -14 -30z"/>
<path d="M3089 1673 c-13 -16 -12 -17 4 -4 9 7 17 15 17 17 0 8 -8 3 -21 -13z"/>
<path d="M2864 1408 c9 -14 13 -28 9 -33 -5 -4 -2 -5 5 -1 13 8 2 39 -19 52
-6 3 -4 -5 5 -18z"/>
<path d="M2946 1289 c3 -5 10 -7 15 -4 5 4 9 1 9 -4 0 -6 5 -11 12 -11 9 0 9
3 0 12 -14 14 -44 20 -36 7z"/>
<path d="M3003 1234 c16 -20 52 -30 41 -12 -4 5 -9 7 -12 4 -3 -3 -15 2 -26
11 -21 18 -21 18 -3 -3z"/>
<path d="M3532 1754 c-138 -37 -212 -106 -212 -199 0 -43 4 -52 38 -85 27 -25
67 -46 131 -69 103 -37 146 -66 136 -93 -4 -10 -36 -32 -71 -49 -77 -38 -177
-52 -226 -32 -27 12 -33 11 -50 -3 -26 -24 -22 -59 10 -84 24 -20 35 -22 102
-17 125 8 293 85 325 148 40 77 0 135 -130 188 -126 52 -145 62 -162 87 -14
22 -14 26 2 50 35 53 203 104 241 73 9 -7 20 -24 25 -37 7 -18 14 -22 32 -16
43 13 58 64 30 102 -37 50 -121 63 -221 36z m161 -26 c15 -6 27 -18 27 -27 0
-9 6 -23 12 -29 10 -10 10 -15 -2 -22 -11 -7 -21 -2 -36 18 -12 15 -21 29 -19
32 2 3 -26 5 -61 6 -35 0 -64 -3 -64 -8 0 -4 -18 -11 -41 -14 -29 -5 -37 -9
-27 -16 9 -6 5 -7 -11 -3 -16 5 -21 4 -17 -4 4 -6 0 -11 -9 -11 -9 0 -13 -4
-10 -10 4 -6 -1 -7 -11 -3 -12 4 -15 3 -10 -5 4 -7 1 -12 -8 -12 -10 0 -13 -6
-9 -17 6 -16 5 -17 -12 -3 -19 15 -19 14 -2 -12 10 -16 15 -28 11 -28 -4 0 -1
-7 6 -15 6 -8 9 -19 6 -24 -6 -9 8 -23 29 -28 37 -8 173 -71 167 -78 -4 -4 3
-5 15 -3 13 2 29 -5 38 -17 9 -11 13 -14 9 -6 -4 9 -3 12 4 7 23 -14 42 -67
31 -87 -5 -11 -7 -24 -4 -29 4 -6 1 -9 -7 -8 -7 2 -12 -2 -11 -8 1 -6 -25 -24
-57 -40 -33 -16 -60 -32 -60 -36 0 -4 -7 -5 -15 -2 -8 4 -15 2 -15 -4 0 -8
-28 -15 -102 -24 -9 -1 -15 -5 -13 -8 2 -3 -19 -5 -47 -4 -35 2 -54 8 -60 19
-5 8 -13 13 -18 10 -4 -3 -6 5 -2 17 3 12 7 17 10 10 2 -6 8 -12 13 -12 6 0 7
5 4 10 -9 15 12 12 26 -3 25 -27 211 13 256 55 13 12 23 18 23 14 0 -4 7 0 16
8 8 9 14 24 13 33 -3 32 1 44 11 38 6 -3 7 1 3 10 -3 10 -8 12 -12 7 -4 -6
-24 2 -49 19 -24 16 -48 26 -54 23 -7 -5 -8 -2 -3 6 6 10 4 12 -8 7 -10 -3
-17 -2 -17 4 0 6 -5 7 -10 4 -6 -4 -21 0 -33 8 -12 7 -35 17 -50 21 -15 3 -25
11 -22 16 4 6 -1 7 -11 3 -13 -5 -16 -3 -11 10 4 10 2 14 -7 11 -17 -7 -34 34
-31 77 3 40 64 117 84 105 6 -4 11 -4 10 1 -3 20 2 27 11 13 8 -13 10 -12 10
4 0 12 5 16 14 13 8 -3 20 1 27 9 7 9 23 14 36 11 13 -2 23 -1 23 3 0 12 102
10 133 -2z"/>
<path d="M3399 1653 c-13 -16 -12 -17 4 -4 9 7 17 15 17 17 0 8 -8 3 -21 -13z"/>
<path d="M3366 1554 c-5 -14 -4 -15 9 -4 17 14 19 20 6 20 -5 0 -12 -7 -15
-16z"/>
<path d="M3490 1450 c8 -5 22 -9 30 -9 10 0 8 3 -5 9 -27 12 -43 12 -25 0z"/>
<path d="M3616 1392 c-3 -5 1 -9 9 -9 8 0 12 4 9 9 -3 4 -7 8 -9 8 -2 0 -6 -4
-9 -8z"/>
<path d="M4367 1748 c-8 -13 -23 -74 -33 -136 -16 -98 -21 -113 -38 -117 -38
-8 -296 -10 -296 -2 0 4 11 60 25 124 19 87 22 119 14 129 -13 16 -75 19 -83
5 -3 -5 -16 -60 -27 -123 -12 -64 -33 -136 -47 -166 -22 -43 -24 -54 -13 -62
12 -7 12 -19 -3 -78 -28 -115 -31 -166 -11 -185 37 -37 95 -3 95 56 0 17 7 71
16 118 l16 86 156 10 c86 5 158 8 160 7 2 -1 -4 -40 -12 -86 -20 -108 -20
-162 0 -182 19 -20 28 -20 63 -2 27 14 28 18 34 113 8 132 15 163 37 163 25 0
42 25 38 57 -2 20 -8 27 -20 25 -23 -4 -23 4 3 133 22 118 18 135 -32 135 -19
0 -33 -8 -42 -22z m53 -22 c0 -13 3 -32 7 -42 5 -12 3 -15 -6 -9 -10 6 -11 2
-6 -15 5 -16 4 -20 -5 -15 -9 5 -10 2 -6 -12 3 -10 2 -41 -3 -68 -9 -47 0 -88
17 -82 4 1 8 -1 10 -5 5 -17 1 -28 -9 -28 -8 0 -8 5 1 15 7 8 10 15 6 15 -3 0
-19 -18 -35 -40 -15 -21 -32 -36 -37 -32 -5 4 -3 0 4 -9 6 -8 10 -25 7 -37 -2
-12 -5 -46 -7 -76 -1 -30 -6 -52 -10 -50 -5 3 -8 0 -8 -5 0 -6 4 -11 9 -11 5
0 9 -12 9 -26 0 -16 -3 -21 -8 -14 -6 9 -10 8 -17 -4 -16 -28 -45 -9 -39 26 5
31 16 51 16 28 0 -7 2 -11 5 -9 2 3 1 19 -4 35 -5 18 -4 52 4 89 11 57 11 60
-12 81 -16 14 -32 21 -46 18 -12 -3 -69 -8 -127 -10 -157 -8 -170 -14 -186
-86 -1 -5 -2 -9 -3 -10 -1 -2 -4 -16 -6 -33 -3 -16 -7 -46 -11 -65 -3 -19 -6
-47 -6 -61 -1 -20 -6 -26 -22 -25 -18 1 -21 8 -22 46 -1 67 15 122 34 115 12
-4 13 -3 2 10 -7 9 -10 25 -6 41 4 15 2 32 -5 40 -9 11 -8 20 5 39 9 14 14 25
10 25 -4 0 -2 6 4 13 5 6 15 39 22 72 7 33 15 65 18 70 7 10 8 16 10 48 1 10
7 15 12 12 6 -3 10 -1 10 4 0 6 -5 11 -11 11 -21 0 -3 35 19 36 19 1 20 -1 10
-14 -10 -13 -10 -14 0 -8 15 9 15 9 2 -34 -6 -19 -13 -48 -15 -65 -24 -155
-21 -163 67 -159 131 6 214 13 231 19 14 6 16 3 11 -11 -3 -11 3 -5 14 12 21
33 52 144 52 188 0 31 26 86 40 86 6 0 10 -11 10 -24z"/>
<path d="M4372 1595 c0 -16 2 -22 5 -12 2 9 2 23 0 30 -3 6 -5 -1 -5 -18z"/>
<path d="M4373 1475 c-3 -9 -3 -18 -1 -21 3 -3 8 4 11 16 6 23 -1 27 -10 5z"/>
<path d="M4791 1748 c-184 -99 -305 -325 -262 -486 16 -58 74 -115 136 -132
95 -27 225 23 330 126 207 203 166 494 -69 494 -30 0 -58 5 -61 10 -9 15 -28
12 -74 -12z m132 -20 c45 3 65 -6 46 -20 -10 -6 -7 -7 10 -3 27 8 74 -13 64
-28 -4 -6 0 -8 11 -4 12 5 15 3 9 -6 -11 -18 -13 -38 -2 -31 5 3 7 10 4 15 -4
5 -2 9 3 9 12 0 34 -49 27 -61 -4 -5 -2 -9 3 -9 9 0 9 -15 4 -98 -1 -13 -6
-21 -11 -18 -5 4 -7 -2 -5 -12 6 -23 -17 -77 -56 -130 -25 -36 -34 -41 -46
-32 -17 15 -19 -1 -1 -19 7 -9 7 -11 1 -8 -7 4 -14 0 -18 -8 -3 -8 -11 -15
-17 -15 -8 0 -7 6 2 18 13 15 12 16 -3 4 -9 -8 -15 -19 -12 -27 3 -7 0 -16 -7
-21 -8 -4 -10 -3 -5 4 5 8 2 10 -8 6 -18 -7 -22 11 -6 21 6 4 7 11 4 17 -4 6
-2 8 3 5 6 -4 18 2 28 13 10 11 15 20 10 20 -4 0 4 9 19 21 14 11 26 29 26 39
0 10 5 22 12 26 7 5 8 2 3 -7 -5 -8 -4 -10 0 -6 10 8 16 33 16 59 0 10 3 20 7
22 12 7 5 99 -9 131 -7 17 -13 35 -13 40 -1 6 -14 16 -31 23 -24 11 -27 15
-15 23 12 8 10 9 -7 4 -12 -3 -24 -1 -27 4 -8 12 -132 9 -143 -4 -4 -4 -1 -5
7 -1 8 4 6 0 -5 -8 -11 -9 -25 -14 -32 -12 -8 3 -15 -5 -19 -20 -4 -14 -9 -23
-12 -20 -5 6 -72 -63 -70 -73 3 -13 -36 -80 -44 -75 -4 3 -5 -2 -2 -11 4 -8 1
-22 -6 -30 -7 -8 -12 -44 -11 -87 0 -64 3 -74 26 -94 29 -25 32 -36 8 -28 -14
5 -15 4 -4 -4 8 -6 21 -8 29 -4 10 3 13 1 8 -6 -7 -12 32 -38 42 -28 3 3 -1 6
-8 6 -7 0 -11 3 -8 6 4 3 17 -2 30 -10 23 -15 28 -15 69 7 42 23 76 26 63 6
-3 -5 0 -9 5 -9 13 0 14 13 2 26 -6 5 0 16 15 27 17 13 22 14 18 3 -3 -8 0
-17 6 -21 7 -4 4 -13 -11 -26 -26 -22 -31 -23 -48 -6 -10 10 -11 9 -6 -5 4
-10 3 -18 -1 -19 -5 0 -16 -2 -24 -4 -73 -19 -89 -20 -127 -11 -46 12 -108 59
-99 75 4 5 1 13 -5 17 -8 5 -9 3 -4 -7 6 -10 5 -11 -3 -4 -38 35 -25 234 17
260 6 3 11 13 11 21 0 19 60 100 72 96 5 -1 7 2 4 7 -3 5 5 16 19 25 14 9 39
32 56 51 27 29 35 33 47 22 11 -8 14 -8 9 0 -9 14 28 23 58 14 11 -3 37 -4 58
-3z m41 -81 c38 -25 59 -82 53 -143 -7 -68 -58 -164 -111 -211 -48 -42 -130
-83 -166 -83 -31 0 -85 32 -99 58 -35 65 -14 175 52 274 82 122 183 162 271
105z"/>
<path d="M4621 1204 c-1 -6 5 -17 12 -23 10 -8 14 -7 14 4 0 8 -4 12 -8 9 -4
-2 -10 2 -12 8 -4 8 -6 9 -6 2z"/>
<path d="M4750 1576 c0 -2 7 -7 16 -10 8 -3 12 -2 9 4 -6 10 -25 14 -25 6z"/>
<path d="M5348 1755 c-131 -25 -152 -41 -129 -92 10 -21 17 -24 40 -20 l28 6
-23 -112 c-73 -353 -75 -407 -16 -407 48 0 59 18 66 101 7 97 12 109 44 109
33 0 185 46 234 71 172 88 194 256 43 326 -68 30 -182 38 -287 18z m259 -32
c13 -3 21 -9 18 -13 -3 -5 4 -6 15 -3 11 3 20 1 20 -5 0 -6 8 -18 18 -28 9
-10 17 -20 17 -23 1 -3 6 -16 14 -29 10 -20 10 -27 -4 -49 -10 -14 -12 -22 -5
-18 7 4 4 -4 -5 -19 -9 -14 -22 -23 -28 -19 -6 3 -7 1 -3 -6 4 -6 0 -18 -8
-27 -9 -8 -16 -12 -16 -7 0 4 -4 4 -8 -2 -12 -17 -56 -51 -48 -37 11 18 -2 15
-26 -8 -12 -10 -25 -17 -29 -14 -4 2 -11 0 -14 -6 -4 -6 -15 -8 -25 -5 -11 3
-20 0 -24 -10 -3 -8 -10 -15 -16 -15 -6 0 -8 6 -4 13 4 6 -2 4 -13 -6 -11 -10
-24 -17 -29 -16 -16 4 -69 -13 -86 -28 -9 -8 -21 -12 -27 -9 -5 4 -13 1 -17
-5 -4 -8 -3 -9 4 -5 20 12 18 -59 -1 -83 -7 -9 -8 -12 -1 -8 7 4 10 -6 10 -29
-1 -23 -7 -36 -18 -40 -32 -10 -41 5 -33 55 4 25 9 58 11 74 18 119 31 189 45
238 7 24 13 67 14 94 1 45 -1 51 -19 51 -12 0 -24 -4 -27 -9 -4 -5 -9 -5 -12
0 -12 20 31 51 67 49 19 -1 32 2 30 6 -10 16 199 17 263 1z"/>
<path d="M5428 1712 c-21 -2 -38 -8 -38 -14 0 -5 -7 -7 -16 -4 -8 3 -12 2 -9
-3 3 -5 1 -12 -4 -15 -5 -3 -7 -16 -4 -29 3 -13 1 -17 -4 -11 -5 7 -9 -13 -10
-47 -1 -32 -8 -72 -16 -87 -7 -16 -12 -38 -10 -50 1 -12 -2 -22 -7 -22 -6 0
-2 -8 8 -18 17 -18 107 -29 97 -12 -3 4 15 11 40 14 25 4 45 12 45 18 0 6 3 8
7 5 3 -4 13 -1 21 6 13 10 14 9 8 -1 -5 -8 14 2 41 22 48 34 73 75 87 141 5
22 4 26 -4 15 -8 -13 -10 -12 -10 3 0 10 -7 20 -15 23 -8 4 -15 10 -15 16 0 5
5 6 12 2 7 -4 8 -3 4 5 -4 6 -11 9 -16 6 -9 -5 -49 13 -60 26 -7 9 -85 15
-132 11z m129 -43 c78 -29 96 -94 41 -148 -18 -17 -57 -43 -86 -57 -56 -26
-157 -52 -167 -42 -3 3 3 46 15 97 11 50 20 104 20 119 0 16 3 32 7 35 10 11
139 8 170 -4z"/>
<path d="M5285 1380 c3 -5 8 -10 11 -10 2 0 4 5 4 10 0 6 -5 10 -11 10 -5 0
-7 -4 -4 -10z"/>
<path d="M2175 1751 c-27 -5 -69 -14 -93 -20 -42 -12 -43 -13 -40 -49 3 -36 4
-37 41 -34 22 2 37 -1 34 -5 -9 -14 -75 -316 -88 -401 -14 -94 -7 -112 45
-112 51 1 61 16 63 100 2 41 14 129 28 195 14 66 31 148 37 182 9 48 16 63 32
67 55 15 155 -2 189 -32 28 -25 22 -76 -14 -112 -40 -40 -125 -83 -148 -75
-26 8 -68 -14 -75 -38 -6 -25 10 -57 29 -57 8 0 51 -38 96 -85 84 -87 159
-145 189 -145 24 0 70 38 70 58 0 9 -19 28 -43 41 -44 25 -197 150 -197 160 1
3 23 16 49 29 145 67 205 171 151 259 -32 54 -89 76 -205 79 -55 1 -122 -1
-150 -5z m223 -21 c7 0 10 -5 6 -12 -4 -6 -3 -8 4 -4 6 3 29 -1 51 -11 29 -12
37 -21 30 -29 -7 -8 -5 -11 7 -10 12 1 20 -10 26 -31 7 -26 3 -42 -18 -83 -14
-27 -28 -50 -31 -50 -2 0 -1 6 2 13 4 6 -3 0 -15 -15 -11 -15 -27 -25 -34 -22
-7 3 -16 -2 -19 -10 -4 -10 -13 -13 -24 -9 -10 3 -15 3 -11 -1 13 -15 -16 -35
-36 -24 -16 9 -14 12 23 29 22 10 41 23 41 29 0 5 6 10 14 10 7 0 20 8 27 18
13 16 13 16 -6 2 -20 -15 -20 -14 -1 8 20 23 42 31 30 10 -4 -8 -3 -10 2 -5
12 11 13 77 1 77 -5 0 -7 9 -4 20 3 11 0 23 -5 27 -7 4 -8 1 -3 -7 5 -9 4 -11
-4 -6 -6 4 -9 11 -6 15 2 5 -5 17 -18 27 -18 16 -19 16 -8 2 17 -22 8 -23 -24
-2 -25 16 -180 30 -170 15 2 -4 -7 -14 -21 -22 -17 -9 -24 -19 -21 -31 3 -10
2 -16 -2 -14 -4 3 -7 -12 -7 -31 0 -20 -4 -38 -10 -40 -5 -2 -8 -19 -6 -38 3
-29 1 -35 -14 -35 -13 0 -15 -3 -7 -8 9 -6 7 -29 -8 -97 -11 -50 -21 -120 -22
-157 -1 -69 -11 -85 -39 -64 -18 13 -17 90 1 125 14 26 14 34 -1 25 -7 -5 -8
-3 -3 6 4 7 9 23 11 34 2 12 9 46 17 76 7 31 12 61 10 67 -2 6 1 14 6 18 6 3
11 15 11 26 0 11 3 18 8 16 4 -3 8 17 9 44 1 26 -2 51 -8 54 -5 4 -7 10 -4 15
3 4 -12 6 -33 4 -26 -2 -33 -1 -22 6 13 9 13 10 0 10 -25 1 13 19 52 26 60 9
223 21 243 18 11 -2 26 -4 33 -4z m-71 -313 c-2 -7 -14 -11 -25 -10 -20 2 -19
1 4 -22 13 -13 24 -29 24 -35 0 -5 7 -10 16 -10 8 0 13 -4 9 -10 -3 -5 8 -16
25 -25 20 -10 30 -22 26 -30 -3 -8 -1 -17 5 -20 5 -4 7 -10 4 -15 -3 -5 0 -12
6 -16 8 -4 9 -3 5 4 -4 7 -2 12 5 12 7 0 4 7 -7 15 -18 14 -17 14 9 3 16 -6
26 -17 23 -25 -5 -13 30 -43 49 -43 5 1 -3 8 -18 16 -16 9 -26 18 -24 21 3 3
20 -3 37 -13 29 -18 30 -20 13 -32 -16 -13 -16 -13 6 -7 16 5 21 4 17 -4 -10
-16 -65 -10 -79 9 -11 13 -10 13 8 0 19 -14 19 -14 6 3 -8 10 -20 16 -28 13
-7 -3 -13 -1 -13 4 0 5 -17 21 -37 35 -21 14 -38 29 -38 33 0 4 -4 6 -8 4 -5
-1 -6 2 -3 7 3 5 -1 12 -10 15 -8 3 -12 11 -9 16 4 6 3 10 -2 9 -18 -3 -33 1
-30 9 1 4 -16 24 -37 43 -22 18 -36 28 -31 20 5 -10 4 -12 -3 -7 -16 10 -15
33 1 39 6 2 34 4 60 5 34 1 47 -3 44 -11z"/>
<path d="M2091 1354 c0 -11 3 -14 6 -6 3 7 2 16 -1 19 -3 4 -6 -2 -5 -13z"/>
<path d="M1936 1708 c3 -5 10 -6 15 -3 13 9 11 12 -6 12 -8 0 -12 -4 -9 -9z"/>
<path d="M2781 1704 c0 -11 3 -14 6 -6 3 7 2 16 -1 19 -3 4 -6 -2 -5 -13z"/>
<path d="M3293 1703 c0 -9 6 -9 21 -1 30 15 30 16 3 14 -13 0 -24 -6 -24 -13z"/>
<path d="M2991 1677 c-13 -21 -12 -21 5 -5 10 10 16 20 13 22 -3 3 -11 -5 -18
-17z"/>
<path d="M3319 1683 c-13 -16 -12 -17 4 -4 16 13 21 21 13 21 -2 0 -10 -8 -17
-17z"/>
<path d="M1446 1668 c3 -5 10 -6 15 -3 13 9 11 12 -6 12 -8 0 -12 -4 -9 -9z"/>
<path d="M1011 1614 c0 -11 3 -14 6 -6 3 7 2 16 -1 19 -3 4 -6 -2 -5 -13z"/>
<path d="M3175 1590 c-3 -5 -12 -7 -20 -3 -8 3 -15 3 -15 0 0 -13 30 -14 40
-1 7 8 10 14 7 14 -3 0 -8 -4 -12 -10z"/>
<path d="M1140 1571 c0 -6 4 -13 10 -16 6 -3 7 1 4 9 -7 18 -14 21 -14 7z"/>
<path d="M2345 1550 c6 -10 4 -12 -9 -7 -10 4 -15 3 -11 -3 8 -13 35 -13 35
-1 0 6 -5 13 -12 17 -7 5 -8 3 -3 -6z"/>
<path d="M3490 1547 c0 -2 6 -10 14 -16 11 -9 16 -9 22 1 4 7 4 10 -1 6 -4 -4
-14 -3 -22 3 -7 6 -13 9 -13 6z"/>
<path d="M2993 1386 c-3 -6 -3 -8 2 -4 4 4 13 3 20 -2 8 -7 12 -5 12 3 0 16
-25 18 -34 3z"/>
<path d="M491 1364 c0 -11 3 -14 6 -6 3 7 2 16 -1 19 -3 4 -6 -2 -5 -13z"/>
<path d="M3207 1309 c7 -7 15 -10 18 -7 3 3 -2 9 -12 12 -14 6 -15 5 -6 -5z"/>
<path d="M2520 1306 c0 -2 8 -10 18 -17 15 -13 16 -12 3 4 -13 16 -21 21 -21
13z"/>
<path d="M3147 1299 c7 -7 15 -10 18 -7 3 3 -2 9 -12 12 -14 6 -15 5 -6 -5z"/>
<path d="M3106 1292 c-3 -5 1 -9 9 -9 8 0 12 4 9 9 -3 4 -7 8 -9 8 -2 0 -6 -4
-9 -8z"/>
<path d="M827 1249 c7 -7 15 -10 18 -7 3 3 -2 9 -12 12 -14 6 -15 5 -6 -5z"/>
<path d="M4995 1199 c-11 -17 1 -21 15 -4 8 9 8 15 2 15 -6 0 -14 -5 -17 -11z"/>
<path d="M582 1101 c-11 -7 -11 -9 0 -14 9 -3 15 1 15 9 0 8 -1 14 -1 14 -1 0
-7 -4 -14 -9z"/>
<path d="M2783 1095 c0 -8 4 -12 9 -9 5 3 6 10 3 15 -9 13 -12 11 -12 -6z"/>
<path d="M5232 1101 c-11 -7 -11 -9 0 -14 9 -3 15 1 15 9 0 8 -1 14 -1 14 -1
0 -7 -4 -14 -9z"/>
<path d="M1435 1090 c-3 -6 1 -7 9 -4 18 7 21 14 7 14 -6 0 -13 -4 -16 -10z"/>
</g>
</svg>
